<svg width="24" height="24" viewBox="0 0 24 24" fill="none" xmlns="http://www.w3.org/2000/svg">
<path id="XMLID 223" d="M22.7006 20.0494L17.9409 15.2897C18.9244 13.8075 19.5 12.0328 19.5 10.125C19.5 4.95563 15.2944 0.75 10.125 0.75C4.95563 0.75 0.75 4.95563 0.75 10.125C0.75 15.2944 4.95563 19.5 10.125 19.5C12.0328 19.5 13.8075 18.9244 15.2897 17.9409L20.0494 22.7006C20.7806 23.4328 21.9694 23.4328 22.7006 22.7006C23.4328 21.9684 23.4328 20.7816 22.7006 20.0494ZM3.5625 10.125C3.5625 6.50625 6.50625 3.5625 10.125 3.5625C13.7437 3.5625 16.6875 6.50625 16.6875 10.125C16.6875 13.7437 13.7437 16.6875 10.125 16.6875C6.50625 16.6875 3.5625 13.7437 3.5625 10.125Z" fill="#F39C12"/>
</svg>
