<svg width="20" height="20" viewBox="0 0 20 20" fill="none" xmlns="http://www.w3.org/2000/svg">
<g id="add">
<path id="Vector" d="M10.5 4.375C10.5 4.09886 10.2761 3.875 10 3.875C9.72386 3.875 9.5 4.09886 9.5 4.375V9.5H4.375C4.09886 9.5 3.875 9.72386 3.875 10C3.875 10.2761 4.09886 10.5 4.375 10.5H9.5V15.625C9.5 15.9011 9.72386 16.125 10 16.125C10.2761 16.125 10.5 15.9011 10.5 15.625V10.5H15.625C15.9011 10.5 16.125 10.2761 16.125 10C16.125 9.72386 15.9011 9.5 15.625 9.5H10.5V4.375Z" stroke="#F39C12" stroke-linecap="round" stroke-linejoin="round"/>
</g>
</svg>
