<svg width="20" height="20" viewBox="0 0 20 20" fill="none" xmlns="http://www.w3.org/2000/svg">
<g id="Bill">
<path id="Vector" d="M16.8968 12.5441L16.2502 12.8674L15.6035 12.5441C15.5456 12.515 15.4816 12.4999 15.4168 12.4999C15.352 12.4999 15.2881 12.515 15.2302 12.5441L14.5835 12.8674L14.1668 12.6591V3.7499C14.1668 3.67885 14.1487 3.60898 14.114 3.54693C14.0794 3.48488 14.0295 3.43271 13.9691 3.39538C13.9086 3.35805 13.8396 3.33681 13.7686 3.33366C13.6976 3.33051 13.627 3.34557 13.5635 3.3774L12.9168 3.70074L12.2702 3.3774C12.2122 3.34837 12.1483 3.33325 12.0835 3.33325C12.0187 3.33325 11.9548 3.34837 11.8968 3.3774L11.2502 3.70074L10.6035 3.3774C10.5456 3.34837 10.4816 3.33325 10.4168 3.33325C10.352 3.33325 10.2881 3.34837 10.2302 3.3774L9.5835 3.70074L8.93683 3.3774C8.87889 3.34837 8.81497 3.33325 8.75016 3.33325C8.68535 3.33325 8.62144 3.34837 8.5635 3.3774L7.91683 3.70074L7.27016 3.3774C7.21222 3.34837 7.14831 3.33325 7.0835 3.33325C7.01869 3.33325 6.95477 3.34837 6.89683 3.3774L6.25016 3.70074L5.6035 3.3774C5.54555 3.34837 5.48164 3.33325 5.41683 3.33325C5.35202 3.33325 5.2881 3.34837 5.23016 3.3774L4.5835 3.70074L3.93683 3.3774C3.87331 3.34557 3.8027 3.33051 3.73171 3.33366C3.66073 3.33681 3.59173 3.35805 3.53127 3.39538C3.47081 3.43271 3.4209 3.48488 3.38629 3.54693C3.35167 3.60898 3.3335 3.67885 3.3335 3.7499V15.4166C3.3335 15.9691 3.55299 16.499 3.94369 16.8897C4.33439 17.2804 4.8643 17.4999 5.41683 17.4999H15.4168C15.9694 17.4999 16.4993 17.2804 16.89 16.8897C17.2807 16.499 17.5002 15.9691 17.5002 15.4166V12.9166C17.5002 12.8455 17.482 12.7756 17.4474 12.7136C17.4128 12.6515 17.3628 12.5994 17.3024 12.562C17.2419 12.5247 17.1729 12.5035 17.1019 12.5003C17.031 12.4972 16.9604 12.5122 16.8968 12.5441V12.5441ZM8.75016 8.33324C8.74878 8.70166 8.62537 9.05924 8.39921 9.35008C8.17305 9.64093 7.85689 9.84863 7.50016 9.94074V13.7499C7.50016 13.8604 7.45626 13.9664 7.37812 14.0445C7.29998 14.1227 7.194 14.1666 7.0835 14.1666C6.97299 14.1666 6.86701 14.1227 6.78887 14.0445C6.71073 13.9664 6.66683 13.8604 6.66683 13.7499V9.94074C6.3101 9.84863 5.99395 9.64093 5.76779 9.35008C5.54163 9.05924 5.41821 8.70166 5.41683 8.33324V7.08324C5.41683 6.97273 5.46073 6.86675 5.53887 6.78861C5.61701 6.71047 5.72299 6.66657 5.8335 6.66657C5.944 6.66657 6.04998 6.71047 6.12812 6.78861C6.20626 6.86675 6.25016 6.97273 6.25016 7.08324V8.33324C6.25182 8.47694 6.29118 8.61769 6.3643 8.74141C6.43742 8.86513 6.54174 8.96749 6.66683 9.03824V7.08324C6.66683 6.97273 6.71073 6.86675 6.78887 6.78861C6.86701 6.71047 6.97299 6.66657 7.0835 6.66657C7.194 6.66657 7.29998 6.71047 7.37812 6.78861C7.45626 6.86675 7.50016 6.97273 7.50016 7.08324V9.03824C7.62525 8.96749 7.72957 8.86513 7.8027 8.74141C7.87582 8.61769 7.91517 8.47694 7.91683 8.33324V7.08324C7.91683 6.97273 7.96073 6.86675 8.03887 6.78861C8.11701 6.71047 8.22299 6.66657 8.3335 6.66657C8.444 6.66657 8.54998 6.71047 8.62812 6.78861C8.70627 6.86675 8.75016 6.97273 8.75016 7.08324V8.33324ZM11.6293 11.6891L10.4168 11.9924V13.7499C10.4168 13.8604 10.3729 13.9664 10.2948 14.0445C10.2167 14.1227 10.1107 14.1666 10.0002 14.1666C9.88966 14.1666 9.78368 14.1227 9.70554 14.0445C9.6274 13.9664 9.5835 13.8604 9.5835 13.7499V7.08324C9.58335 7.00072 9.60771 6.92002 9.65348 6.85136C9.69925 6.7827 9.76438 6.72918 9.84061 6.69758C9.91684 6.66599 10.0007 6.65773 10.0817 6.67387C10.1626 6.69001 10.2369 6.72982 10.2952 6.78824C10.864 7.35403 11.3149 8.02702 11.6219 8.76827C11.9289 9.50951 12.0858 10.3043 12.0835 11.1066C12.0838 11.2404 12.0392 11.3706 11.9568 11.4761C11.8745 11.5817 11.7592 11.6567 11.6293 11.6891V11.6891ZM16.6668 15.4166C16.6668 15.7481 16.5351 16.066 16.3007 16.3005C16.0663 16.5349 15.7484 16.6666 15.4168 16.6666C15.0853 16.6666 14.7674 16.5349 14.5329 16.3005C14.2985 16.066 14.1668 15.7481 14.1668 15.4166V13.5907L14.3968 13.7057C14.4548 13.7348 14.5187 13.7499 14.5835 13.7499C14.6483 13.7499 14.7122 13.7348 14.7702 13.7057L15.4168 13.3824L16.0635 13.7057C16.1214 13.7348 16.1854 13.7499 16.2502 13.7499C16.315 13.7499 16.3789 13.7348 16.4368 13.7057L16.6668 13.5907V15.4166Z" fill="#F39C12"/>
</g>
</svg>
