<svg width="31" height="31" viewBox="0 0 31 31" fill="none" xmlns="http://www.w3.org/2000/svg">
<g id="call-outline">
<path id="Vector" d="M26.9261 22.5022C25.9956 21.5647 23.7421 20.1966 22.6488 19.6452C21.2249 18.928 21.1078 18.8694 19.9886 19.7009C19.2421 20.2558 18.7458 20.7515 17.8722 20.5651C16.9986 20.3788 15.1001 19.3282 13.4378 17.6712C11.7755 16.0142 10.664 14.0606 10.4771 13.1899C10.2902 12.3192 10.7941 11.8288 11.3437 11.0806C12.1183 10.0259 12.0597 9.8501 11.3976 8.42627C10.8814 7.31885 9.47338 5.08642 8.53237 4.16064C7.52573 3.16631 7.52573 3.34209 6.87709 3.61162C6.34903 3.8338 5.84242 4.10387 5.36362 4.41846C4.42612 5.04131 3.9058 5.55869 3.54194 6.33623C3.17807 7.11377 3.01459 8.93662 4.89369 12.3503C6.7728 15.764 8.09116 17.5095 10.8199 20.2306C13.5486 22.9517 15.6468 24.4147 18.7142 26.1351C22.5087 28.2603 23.9642 27.846 24.7441 27.4827C25.524 27.1194 26.0437 26.6038 26.6677 25.6663C26.9831 25.1883 27.2538 24.6823 27.4763 24.1546C27.7464 23.5083 27.9222 23.5083 26.9261 22.5022Z" stroke="#F9BB26" stroke-width="2" stroke-miterlimit="10"/>
</g>
</svg>
