<svg width="48" height="50" viewBox="0 0 48 50" fill="none" xmlns="http://www.w3.org/2000/svg">
<g id="Group">
<g id="Group_2">
<g id="Vector">
<mask id="path-1-inside-1_965_3457" fill="white">
<path d="M46.4075 26.4204H43.2758C43.3887 26.1016 43.4507 25.7591 43.4507 25.4022C43.4507 23.7157 42.0786 22.3434 40.3919 22.3434C38.7052 22.3434 37.3331 23.7156 37.3331 25.4022C37.3331 25.7591 37.3951 26.1016 37.508 26.4204H34.3763C33.8129 26.4204 33.356 26.8772 33.356 27.4407V35.9843L27.9422 33.7286C27.7087 33.6314 27.5579 33.4051 27.5579 33.1521V31.5632L29.645 30.3665C31.3381 29.5461 32.5662 27.9642 33.0186 26.7361C33.0249 26.7191 33.0307 26.7018 33.0361 26.6844C33.2252 26.0715 33.0699 25.4909 32.6303 25.1692C32.6297 25.1687 32.6287 25.1682 32.6282 25.1676V24.8801C33.9532 24.4492 34.9135 23.2023 34.9135 21.7354C34.9135 20.2685 33.9531 19.0217 32.6282 18.5907L32.6204 12.7933C34.8234 11.8977 36.3028 9.74598 36.3028 7.31219C36.3028 4.04911 33.648 1.39443 30.385 1.39443C29.3665 1.39443 28.3672 1.65908 27.4876 2.15244C26.2562 0.791307 24.5069 0.00292969 22.6379 0.00292969C20.706 0.00292969 18.8798 0.867479 17.647 2.31582C16.7059 1.71621 15.6123 1.39433 14.4756 1.39433C11.2125 1.39433 8.5578 4.04902 8.5578 7.31209C8.5578 9.73221 10.0268 11.8798 12.2145 12.7824L12.2223 18.5908C10.8973 19.0217 9.93699 20.2686 9.93699 21.7355C9.93699 23.2024 10.8974 24.4492 12.2223 24.8802V25.1723C11.786 25.4945 11.6318 26.0733 11.8202 26.6842C11.8256 26.7018 11.8314 26.7191 11.8378 26.7364C12.2347 27.8138 13.2289 29.1641 14.6101 30.0331C14.6104 30.0334 14.9095 30.2132 15.0552 30.2891L17.2925 31.5682V33.1522C17.2925 33.4051 17.1417 33.6314 16.9082 33.7287L10.3417 36.4648C8.62323 37.1808 7.42303 39.0699 7.42303 41.0586V47.9574H1.7625C1.19912 47.9574 0.742188 48.4143 0.742188 48.9777C0.742188 49.5412 1.19912 49.998 1.7625 49.998H43.0884C43.6518 49.998 44.1087 49.5413 44.1087 48.9777C44.1087 48.4143 43.6518 47.9574 43.0884 47.9574H37.4278V45.5926H46.4076C46.971 45.5926 47.4279 45.1357 47.4279 44.5723V27.4407C47.4278 26.8771 46.9709 26.4204 46.4075 26.4204ZM40.392 24.384C40.9533 24.384 41.4102 24.8409 41.4102 25.4022C41.4102 25.9635 40.9533 26.4204 40.392 26.4204C39.8306 26.4204 39.3739 25.9635 39.3739 25.4022C39.3739 24.8408 39.8306 24.384 40.392 24.384ZM10.5984 7.31229C10.5984 5.1744 12.3378 3.43515 14.4756 3.43515C15.4776 3.43515 16.4291 3.81737 17.1544 4.51122C17.3803 4.72733 17.6932 4.82792 18.0022 4.78427C18.3118 4.74062 18.5841 4.55741 18.7415 4.28739C19.5473 2.90331 21.0404 2.04355 22.638 2.04355C24.1655 2.04355 25.5771 2.80927 26.4142 4.09189C26.573 4.33515 26.8279 4.49921 27.115 4.54286C27.4021 4.58681 27.6943 4.50595 27.9183 4.32099C28.6101 3.7496 29.4862 3.43505 30.3853 3.43505C32.5232 3.43505 34.2624 5.1744 34.2624 7.31219C34.2624 9.08602 33.064 10.6307 31.3482 11.0689C30.8963 11.1843 30.5803 11.5912 30.5803 12.0575V16.5318H14.2553V12.0508C14.2553 11.5865 13.942 11.1808 13.4927 11.0637C11.7887 10.6186 10.5984 9.07596 10.5984 7.31229ZM14.5851 25.464C14.4415 25.464 14.3412 25.4639 14.263 25.4587V24.0209C14.263 23.4574 13.806 23.0005 13.2427 23.0005C12.5451 23.0005 11.9776 22.433 11.9776 21.7355C11.9776 21.038 12.5452 20.4705 13.2427 20.4705C13.806 20.4705 14.263 20.0136 14.263 19.4502V18.5726H30.5878V19.4502C30.5878 20.0136 31.0448 20.4705 31.6081 20.4705C32.3057 20.4705 32.8732 21.038 32.8732 21.7355C32.8732 22.433 32.3056 23.0005 31.6081 23.0005C31.0448 23.0005 30.5878 23.4574 30.5878 24.0209V25.459C30.5104 25.4638 30.4118 25.4639 30.2715 25.4639C29.7698 25.4639 29.2024 25.0696 28.5454 24.6129C27.6184 23.9688 26.4648 23.1671 24.9174 23.1671C24.3073 23.1671 23.4232 23.3256 22.4283 24.0008C21.4333 23.3256 20.5493 23.1671 19.9391 23.1671C18.3919 23.1671 17.2382 23.9688 16.3112 24.6129C15.6544 25.0697 15.087 25.464 14.5851 25.464ZM16.0726 28.5201L15.6539 28.2807C15.3527 28.0767 15.0912 27.807 14.8775 27.4899C15.8805 27.3959 16.6907 26.8344 17.4757 26.2888C18.2756 25.733 19.0311 25.2079 19.939 25.2079C20.2595 25.2079 20.9209 25.318 21.7497 26.056C22.1365 26.4004 22.72 26.4004 23.1068 26.056C23.9356 25.318 24.5969 25.2079 24.9174 25.2079C25.8253 25.2079 26.5808 25.7329 27.3807 26.2888C28.1606 26.8308 28.9649 27.3889 29.9589 27.4884C29.7425 27.8067 29.4792 28.0783 29.1797 28.2812L28.6664 28.5755C28.2551 28.7605 27.8073 28.8745 27.3318 28.8745C25.3697 28.8745 24.1003 28.3948 23.2167 27.3191C23.0229 27.0832 22.7336 26.9464 22.4283 26.9464C22.1229 26.9464 21.8337 27.0832 21.6399 27.3191C20.7562 28.3947 19.487 28.8745 17.5248 28.8745C17.0037 28.8745 16.5156 28.7376 16.0726 28.5201ZM19.2714 33.7228C19.3117 33.5379 19.3333 33.3469 19.3333 33.152V32.7346L20.1086 33.1779C20.8247 33.643 21.6251 33.8755 22.4254 33.8755C23.226 33.8755 24.0266 33.6428 24.7429 33.1775L25.5174 32.7334V33.1522C25.5174 33.3497 25.5395 33.5434 25.5808 33.7306L22.4351 34.7558L19.2714 33.7228ZM21.405 37.3373C21.3239 37.9489 21.1278 38.6112 20.7044 39.0346C20.1642 39.5747 19.2428 39.7466 18.5229 39.779C18.5553 39.0583 18.7272 38.1373 19.2672 37.5975C19.7893 37.0754 20.667 36.8979 21.3754 36.8573C21.3799 37.0081 21.3894 37.169 21.405 37.3373ZM19.8378 30.6725C20.8531 30.4351 21.7076 30.0209 22.4284 29.4152C23.1475 30.0195 23.9999 30.4331 25.0121 30.6708L23.7018 31.4222C23.6833 31.4329 23.665 31.4442 23.6471 31.456C22.8821 31.9612 21.969 31.9612 21.204 31.456C21.1857 31.444 21.1671 31.4325 21.148 31.4216L19.8378 30.6725ZM23.4932 36.8577C24.1982 36.8992 25.0803 37.0765 25.6012 37.5975C26.1414 38.1375 26.3132 39.0588 26.3458 39.7786C25.6296 39.7451 24.7032 39.5737 24.1641 39.0346C23.7406 38.6111 23.5441 37.9531 23.463 37.3417C23.4791 37.1719 23.4885 37.0098 23.4932 36.8577ZM35.3868 47.957H9.46375V41.0584C9.46375 39.9084 10.1787 38.7433 11.1267 38.3482L17.6932 35.6121C17.8019 35.5668 17.9055 35.5139 18.0054 35.456L18.4978 35.6167C18.2604 35.7676 18.0335 35.9452 17.8242 36.1544C16.1627 37.8161 16.4845 40.5903 16.5266 40.9011C16.5883 41.3558 16.9459 41.7133 17.4006 41.775C17.4963 41.788 17.8249 41.8275 18.2829 41.8275C19.3132 41.8275 20.9969 41.6277 22.1471 40.4774C22.2503 40.3742 22.3457 40.2668 22.434 40.156C22.5224 40.2668 22.6178 40.3742 22.721 40.4774C23.8713 41.6278 25.5548 41.8275 26.5852 41.8275C27.043 41.8275 27.372 41.788 27.4675 41.775C27.9222 41.7134 28.2798 41.3558 28.3415 40.9011C28.3835 40.5903 28.7055 37.816 27.0438 36.1543C26.8354 35.9458 26.6093 35.7687 26.3728 35.6182L26.8542 35.4613C26.9513 35.5168 27.0518 35.5682 27.1571 35.612L33.7236 38.348C34.6715 38.7429 35.3865 39.9081 35.3865 41.0582V47.957H35.3868ZM45.3872 43.5519H37.4277V41.0584C37.4277 39.4339 36.6266 37.8763 35.3967 36.9698V28.4609H45.3872V43.5519Z"/>
</mask>
<path d="M46.4075 26.4204H43.2758C43.3887 26.1016 43.4507 25.7591 43.4507 25.4022C43.4507 23.7157 42.0786 22.3434 40.3919 22.3434C38.7052 22.3434 37.3331 23.7156 37.3331 25.4022C37.3331 25.7591 37.3951 26.1016 37.508 26.4204H34.3763C33.8129 26.4204 33.356 26.8772 33.356 27.4407V35.9843L27.9422 33.7286C27.7087 33.6314 27.5579 33.4051 27.5579 33.1521V31.5632L29.645 30.3665C31.3381 29.5461 32.5662 27.9642 33.0186 26.7361C33.0249 26.7191 33.0307 26.7018 33.0361 26.6844C33.2252 26.0715 33.0699 25.4909 32.6303 25.1692C32.6297 25.1687 32.6287 25.1682 32.6282 25.1676V24.8801C33.9532 24.4492 34.9135 23.2023 34.9135 21.7354C34.9135 20.2685 33.9531 19.0217 32.6282 18.5907L32.6204 12.7933C34.8234 11.8977 36.3028 9.74598 36.3028 7.31219C36.3028 4.04911 33.648 1.39443 30.385 1.39443C29.3665 1.39443 28.3672 1.65908 27.4876 2.15244C26.2562 0.791307 24.5069 0.00292969 22.6379 0.00292969C20.706 0.00292969 18.8798 0.867479 17.647 2.31582C16.7059 1.71621 15.6123 1.39433 14.4756 1.39433C11.2125 1.39433 8.5578 4.04902 8.5578 7.31209C8.5578 9.73221 10.0268 11.8798 12.2145 12.7824L12.2223 18.5908C10.8973 19.0217 9.93699 20.2686 9.93699 21.7355C9.93699 23.2024 10.8974 24.4492 12.2223 24.8802V25.1723C11.786 25.4945 11.6318 26.0733 11.8202 26.6842C11.8256 26.7018 11.8314 26.7191 11.8378 26.7364C12.2347 27.8138 13.2289 29.1641 14.6101 30.0331C14.6104 30.0334 14.9095 30.2132 15.0552 30.2891L17.2925 31.5682V33.1522C17.2925 33.4051 17.1417 33.6314 16.9082 33.7287L10.3417 36.4648C8.62323 37.1808 7.42303 39.0699 7.42303 41.0586V47.9574H1.7625C1.19912 47.9574 0.742188 48.4143 0.742188 48.9777C0.742188 49.5412 1.19912 49.998 1.7625 49.998H43.0884C43.6518 49.998 44.1087 49.5413 44.1087 48.9777C44.1087 48.4143 43.6518 47.9574 43.0884 47.9574H37.4278V45.5926H46.4076C46.971 45.5926 47.4279 45.1357 47.4279 44.5723V27.4407C47.4278 26.8771 46.9709 26.4204 46.4075 26.4204ZM40.392 24.384C40.9533 24.384 41.4102 24.8409 41.4102 25.4022C41.4102 25.9635 40.9533 26.4204 40.392 26.4204C39.8306 26.4204 39.3739 25.9635 39.3739 25.4022C39.3739 24.8408 39.8306 24.384 40.392 24.384ZM10.5984 7.31229C10.5984 5.1744 12.3378 3.43515 14.4756 3.43515C15.4776 3.43515 16.4291 3.81737 17.1544 4.51122C17.3803 4.72733 17.6932 4.82792 18.0022 4.78427C18.3118 4.74062 18.5841 4.55741 18.7415 4.28739C19.5473 2.90331 21.0404 2.04355 22.638 2.04355C24.1655 2.04355 25.5771 2.80927 26.4142 4.09189C26.573 4.33515 26.8279 4.49921 27.115 4.54286C27.4021 4.58681 27.6943 4.50595 27.9183 4.32099C28.6101 3.7496 29.4862 3.43505 30.3853 3.43505C32.5232 3.43505 34.2624 5.1744 34.2624 7.31219C34.2624 9.08602 33.064 10.6307 31.3482 11.0689C30.8963 11.1843 30.5803 11.5912 30.5803 12.0575V16.5318H14.2553V12.0508C14.2553 11.5865 13.942 11.1808 13.4927 11.0637C11.7887 10.6186 10.5984 9.07596 10.5984 7.31229ZM14.5851 25.464C14.4415 25.464 14.3412 25.4639 14.263 25.4587V24.0209C14.263 23.4574 13.806 23.0005 13.2427 23.0005C12.5451 23.0005 11.9776 22.433 11.9776 21.7355C11.9776 21.038 12.5452 20.4705 13.2427 20.4705C13.806 20.4705 14.263 20.0136 14.263 19.4502V18.5726H30.5878V19.4502C30.5878 20.0136 31.0448 20.4705 31.6081 20.4705C32.3057 20.4705 32.8732 21.038 32.8732 21.7355C32.8732 22.433 32.3056 23.0005 31.6081 23.0005C31.0448 23.0005 30.5878 23.4574 30.5878 24.0209V25.459C30.5104 25.4638 30.4118 25.4639 30.2715 25.4639C29.7698 25.4639 29.2024 25.0696 28.5454 24.6129C27.6184 23.9688 26.4648 23.1671 24.9174 23.1671C24.3073 23.1671 23.4232 23.3256 22.4283 24.0008C21.4333 23.3256 20.5493 23.1671 19.9391 23.1671C18.3919 23.1671 17.2382 23.9688 16.3112 24.6129C15.6544 25.0697 15.087 25.464 14.5851 25.464ZM16.0726 28.5201L15.6539 28.2807C15.3527 28.0767 15.0912 27.807 14.8775 27.4899C15.8805 27.3959 16.6907 26.8344 17.4757 26.2888C18.2756 25.733 19.0311 25.2079 19.939 25.2079C20.2595 25.2079 20.9209 25.318 21.7497 26.056C22.1365 26.4004 22.72 26.4004 23.1068 26.056C23.9356 25.318 24.5969 25.2079 24.9174 25.2079C25.8253 25.2079 26.5808 25.7329 27.3807 26.2888C28.1606 26.8308 28.9649 27.3889 29.9589 27.4884C29.7425 27.8067 29.4792 28.0783 29.1797 28.2812L28.6664 28.5755C28.2551 28.7605 27.8073 28.8745 27.3318 28.8745C25.3697 28.8745 24.1003 28.3948 23.2167 27.3191C23.0229 27.0832 22.7336 26.9464 22.4283 26.9464C22.1229 26.9464 21.8337 27.0832 21.6399 27.3191C20.7562 28.3947 19.487 28.8745 17.5248 28.8745C17.0037 28.8745 16.5156 28.7376 16.0726 28.5201ZM19.2714 33.7228C19.3117 33.5379 19.3333 33.3469 19.3333 33.152V32.7346L20.1086 33.1779C20.8247 33.643 21.6251 33.8755 22.4254 33.8755C23.226 33.8755 24.0266 33.6428 24.7429 33.1775L25.5174 32.7334V33.1522C25.5174 33.3497 25.5395 33.5434 25.5808 33.7306L22.4351 34.7558L19.2714 33.7228ZM21.405 37.3373C21.3239 37.9489 21.1278 38.6112 20.7044 39.0346C20.1642 39.5747 19.2428 39.7466 18.5229 39.779C18.5553 39.0583 18.7272 38.1373 19.2672 37.5975C19.7893 37.0754 20.667 36.8979 21.3754 36.8573C21.3799 37.0081 21.3894 37.169 21.405 37.3373ZM19.8378 30.6725C20.8531 30.4351 21.7076 30.0209 22.4284 29.4152C23.1475 30.0195 23.9999 30.4331 25.0121 30.6708L23.7018 31.4222C23.6833 31.4329 23.665 31.4442 23.6471 31.456C22.8821 31.9612 21.969 31.9612 21.204 31.456C21.1857 31.444 21.1671 31.4325 21.148 31.4216L19.8378 30.6725ZM23.4932 36.8577C24.1982 36.8992 25.0803 37.0765 25.6012 37.5975C26.1414 38.1375 26.3132 39.0588 26.3458 39.7786C25.6296 39.7451 24.7032 39.5737 24.1641 39.0346C23.7406 38.6111 23.5441 37.9531 23.463 37.3417C23.4791 37.1719 23.4885 37.0098 23.4932 36.8577ZM35.3868 47.957H9.46375V41.0584C9.46375 39.9084 10.1787 38.7433 11.1267 38.3482L17.6932 35.6121C17.8019 35.5668 17.9055 35.5139 18.0054 35.456L18.4978 35.6167C18.2604 35.7676 18.0335 35.9452 17.8242 36.1544C16.1627 37.8161 16.4845 40.5903 16.5266 40.9011C16.5883 41.3558 16.9459 41.7133 17.4006 41.775C17.4963 41.788 17.8249 41.8275 18.2829 41.8275C19.3132 41.8275 20.9969 41.6277 22.1471 40.4774C22.2503 40.3742 22.3457 40.2668 22.434 40.156C22.5224 40.2668 22.6178 40.3742 22.721 40.4774C23.8713 41.6278 25.5548 41.8275 26.5852 41.8275C27.043 41.8275 27.372 41.788 27.4675 41.775C27.9222 41.7134 28.2798 41.3558 28.3415 40.9011C28.3835 40.5903 28.7055 37.816 27.0438 36.1543C26.8354 35.9458 26.6093 35.7687 26.3728 35.6182L26.8542 35.4613C26.9513 35.5168 27.0518 35.5682 27.1571 35.612L33.7236 38.348C34.6715 38.7429 35.3865 39.9081 35.3865 41.0582V47.957H35.3868ZM45.3872 43.5519H37.4277V41.0584C37.4277 39.4339 36.6266 37.8763 35.3967 36.9698V28.4609H45.3872V43.5519Z" fill="#F39C12" stroke="#F39C12" stroke-width="2" mask="url(#path-1-inside-1_965_3457)"/>
</g>
</g>
</g>
</svg>
