<svg width="30" height="30" viewBox="0 0 30 30" fill="none" xmlns="http://www.w3.org/2000/svg">
<g id="create-outline">
<path id="Vector" d="M22.5 13.125V23.9062C22.5 24.214 22.4394 24.5188 22.3216 24.8032C22.2038 25.0875 22.0312 25.3459 21.8135 25.5635C21.5959 25.7812 21.3375 25.9538 21.0532 26.0716C20.7688 26.1894 20.464 26.25 20.1562 26.25H6.09375C5.47215 26.25 4.87601 26.0031 4.43647 25.5635C3.99693 25.124 3.75 24.5279 3.75 23.9062V9.84375C3.75 9.22215 3.99693 8.62601 4.43647 8.18647C4.87601 7.74693 5.47215 7.5 6.09375 7.5H15.907" stroke="black" stroke-width="1.5" stroke-linecap="round" stroke-linejoin="round"/>
<path id="Vector_2" d="M26.9497 3.12013C26.8641 3.02606 26.7603 2.95032 26.6445 2.89749C26.5288 2.84466 26.4036 2.81584 26.2764 2.81277C26.1493 2.80971 26.0228 2.83245 25.9047 2.87964C25.7865 2.92683 25.6792 2.99748 25.5891 3.08732L24.8643 3.80861C24.7765 3.89651 24.7271 4.01569 24.7271 4.13996C24.7271 4.26423 24.7765 4.38341 24.8643 4.47131L25.5288 5.13459C25.5723 5.17835 25.6241 5.21307 25.6811 5.23676C25.7381 5.26046 25.7993 5.27265 25.861 5.27265C25.9227 5.27265 25.9839 5.26046 26.0409 5.23676C26.0979 5.21307 26.1497 5.17835 26.1932 5.13459L26.8999 4.43146C27.2573 4.07463 27.2907 3.49338 26.9497 3.12013ZM23.3989 5.27345L12.8216 15.832C12.7574 15.8959 12.7108 15.9752 12.6862 16.0623L12.1969 17.5195C12.1852 17.5591 12.1844 17.6011 12.1945 17.641C12.2047 17.681 12.2254 17.7175 12.2546 17.7467C12.2838 17.7758 12.3203 17.7966 12.3602 17.8067C12.4002 17.8169 12.4422 17.816 12.4817 17.8043L13.9378 17.3151C14.0249 17.2904 14.1042 17.2438 14.168 17.1797L24.7266 6.60119C24.8243 6.50246 24.8791 6.36918 24.8791 6.23029C24.8791 6.0914 24.8243 5.95812 24.7266 5.85939L24.1436 5.27345C24.0448 5.17488 23.9109 5.11952 23.7713 5.11952C23.6317 5.11952 23.4978 5.17488 23.3989 5.27345Z" fill="black"/>
</g>
</svg>
