<svg width="21" height="17" viewBox="0 0 21 17" fill="none" xmlns="http://www.w3.org/2000/svg">
<path id="Vector" d="M0.666992 12.4166C0.666992 12.8807 0.851366 13.3258 1.17956 13.654C1.50774 13.9822 1.95286 14.1666 2.41699 14.1666H3.05983C3.19371 14.8259 3.55142 15.4187 4.07234 15.8444C4.59327 16.2702 5.24537 16.5028 5.91816 16.5028C6.59095 16.5028 7.24305 16.2702 7.76398 15.8444C8.2849 15.4187 8.64261 14.8259 8.77649 14.1666H12.4503C13.2419 14.161 14.0147 13.9246 14.674 13.4864C14.674 13.5191 14.6647 13.5506 14.6647 13.5832C14.6643 14.2108 14.8663 14.8218 15.2408 15.3255C15.6153 15.8291 16.1422 16.1985 16.7434 16.3788C17.3445 16.5591 17.9878 16.5407 18.5777 16.3263C19.1675 16.1119 19.6725 15.713 20.0176 15.1888C20.3626 14.6645 20.5294 14.043 20.4931 13.4164C20.4568 12.7898 20.2194 12.1917 19.816 11.7108C19.4127 11.23 18.8651 10.892 18.2544 10.7472C17.6437 10.6023 17.0026 10.6584 16.4263 10.9069C16.5247 10.4708 16.55 10.0213 16.501 9.57689L16.0495 5.96022C16.1702 5.98663 16.2934 5.99993 16.417 5.99989H17.0003C17.3097 5.99989 17.6065 5.87697 17.8253 5.65818C18.0441 5.43938 18.167 5.14264 18.167 4.83322V3.66655C18.167 3.35713 18.0441 3.06039 17.8253 2.8416C17.6065 2.6228 17.3097 2.49989 17.0003 2.49989H16.417C16.1467 2.50115 15.8804 2.56501 15.6389 2.68646C15.3974 2.80791 15.1873 2.98364 15.0252 3.19989L14.8373 3.01205C14.5085 2.68538 14.0642 2.50138 13.6007 2.49989H12.917C12.7623 2.49989 12.6139 2.56134 12.5045 2.67074C12.3951 2.78014 12.3337 2.92851 12.3337 3.08322C12.3337 3.23793 12.3951 3.3863 12.5045 3.4957C12.6139 3.6051 12.7623 3.66655 12.917 3.66655H13.6007C13.7551 3.66659 13.9032 3.72784 14.0125 3.83689L14.6938 4.51822C14.7113 4.62672 15.1302 7.99255 15.346 9.72155C15.3973 10.132 15.3607 10.5488 15.2386 10.944C15.1165 11.3393 14.9117 11.704 14.6379 12.0141C14.364 12.3241 14.0273 12.5724 13.6502 12.7423C13.273 12.9123 12.864 13.0001 12.4503 12.9999H12.2287L11.167 7.69272V6.58322C11.167 6.11909 10.9826 5.67397 10.6544 5.34578C10.3262 5.01759 9.88112 4.83322 9.41699 4.83322H7.08366V1.91655C7.08366 1.45242 6.89928 1.0073 6.5711 0.679115C6.24291 0.350927 5.79779 0.166553 5.33366 0.166553H2.41699C1.95286 0.166553 1.50774 0.350927 1.17956 0.679115C0.851366 1.0073 0.666992 1.45242 0.666992 1.91655V6.58322C0.666992 7.04735 0.851366 7.49247 1.17956 7.82066C1.50774 8.14885 1.95286 8.33322 2.41699 8.33322H2.65733C2.03946 8.82 1.53954 9.44007 1.19489 10.1471C0.850252 10.8542 0.669793 11.63 0.666992 12.4166V12.4166ZM17.5837 11.8332C17.9298 11.8332 18.2681 11.9359 18.5559 12.1281C18.8437 12.3204 19.068 12.5938 19.2004 12.9135C19.3329 13.2333 19.3676 13.5852 19.3 13.9246C19.2325 14.2641 19.0658 14.5759 18.8211 14.8207C18.5764 15.0654 18.2645 15.2321 17.9251 15.2996C17.5856 15.3671 17.2337 15.3325 16.914 15.2C16.5942 15.0676 16.3209 14.8433 16.1286 14.5555C15.9363 14.2677 15.8337 13.9293 15.8337 13.5832C15.8337 13.1191 16.018 12.674 16.3462 12.3458C16.6744 12.0176 17.1195 11.8332 17.5837 11.8332ZM7.08366 5.99989H9.41699C9.5717 5.99989 9.72008 6.06134 9.82947 6.17074C9.93887 6.28014 10.0003 6.42851 10.0003 6.58322V7.16655H7.08366V5.99989ZM7.55966 14.1666C7.44086 14.5075 7.2189 14.8031 6.92456 15.0123C6.63021 15.2214 6.27808 15.3338 5.91699 15.3338C5.55591 15.3338 5.20377 15.2214 4.90943 15.0123C4.61508 14.8031 4.39312 14.5075 4.27433 14.1666H7.55966ZM1.83366 1.91655C1.83366 1.76184 1.89512 1.61347 2.00451 1.50407C2.11391 1.39468 2.26228 1.33322 2.41699 1.33322H5.33366C5.48837 1.33322 5.63674 1.39468 5.74614 1.50407C5.85553 1.61347 5.91699 1.76184 5.91699 1.91655V2.49989H1.83366V1.91655ZM1.83366 3.66655H5.91699V4.81572H1.83366V3.66655ZM2.41699 7.16655C2.26228 7.16655 2.11391 7.1051 2.00451 6.9957C1.89512 6.8863 1.83366 6.73793 1.83366 6.58322V5.98239H5.91699V7.16655H2.41699Z" fill="#F39C12"/>
</svg>
