<svg width="51" height="50" viewBox="0 0 51 50" fill="none" xmlns="http://www.w3.org/2000/svg">
<g id="Group">
<g id="Group_2">
<g id="Vector">
<mask id="path-1-outside-1_965_3018" maskUnits="userSpaceOnUse" x="-0.478516" y="-1" width="52" height="52" fill="black">
<rect fill="white" x="-0.478516" y="-1" width="52" height="52"/>
<path d="M0.618264 11.2903H2.23117V0H15.1344V11.2903H16.7473V25H21.6997C21.1328 24.2831 20.7796 23.3903 20.7796 22.4073V12.0968C20.7796 10.8274 21.3812 9.70645 22.3013 8.96694C20.9078 8.11694 19.9731 6.5871 19.9731 4.83871C19.9731 2.17016 22.1433 0 24.8118 0C27.4804 0 29.6505 2.17016 29.6505 4.83871C29.6505 6.5871 28.7158 8.11694 27.3223 8.96694C28.2425 9.70645 28.8441 10.8274 28.8441 12.0968V12.5694L30.7908 14.5161H32.8763C34.2941 14.5161 35.4602 15.571 35.6578 16.9355H36.5505C37.1102 15.9758 38.1392 15.3226 39.3279 15.3226H42.5537V21.7742H40.1941L40.8852 31.4516H42.5537V33.9097C46.3376 34.2613 49.5699 37.0565 50.4029 40.8161L50.5215 41.3556L48.9916 42.3758C48.9997 42.5008 49.0054 42.6234 49.0054 42.7419C49.0054 46.7444 45.7497 50 41.7473 50C38.3368 50 35.4142 47.6153 34.6755 44.3484L32.9941 44.3548L32.9207 43.6298C32.8925 43.3371 32.8763 43.0419 32.8763 42.7419H17.5537C17.5537 46.7444 14.2981 50 10.2957 50C6.29326 50 3.03762 46.7444 3.03762 42.7419H0.618264V40.246C0.618264 38.6056 0.881165 36.9831 1.40133 35.4242C2.711 31.4944 5.50617 28.3798 9.03842 26.6121H0.618264V11.2903ZM9.48923 1.6129H7.87633V5.64516H9.48923V1.6129ZM13.5215 1.6129H11.1021V7.25806H6.26343V1.6129H3.84407V11.2903H13.5215V1.6129ZM7.87633 12.9032V16.9355H9.48923V12.9032H7.87633ZM28.0376 4.83871C28.0376 3.05968 26.5908 1.6129 24.8118 1.6129C23.0328 1.6129 21.586 3.05968 21.586 4.83871C21.586 6.61774 23.0328 8.06452 24.8118 8.06452C26.5908 8.06452 28.0376 6.61774 28.0376 4.83871ZM25.8546 11.8605L26.8715 10.8435C26.4457 10.1476 25.686 9.67742 24.8118 9.67742C23.4779 9.67742 22.3925 10.7629 22.3925 12.0968V19.3548H27.2312V18.8694C27.1852 18.8266 27.1368 18.7879 27.0925 18.7435L23.4352 15.0863L24.5755 13.946L26.8279 16.1984L28.5102 14.5161L25.8546 11.8605ZM24.0054 29.0323C21.782 29.0323 19.9731 30.8411 19.9731 33.0645C19.9731 35.2879 21.782 37.0968 24.0054 37.0968H28.0376V26.6129H24.9852C24.9255 26.6129 24.8707 26.5976 24.8118 26.5952V29.0323H24.0054ZM24.9852 25H28.0376C28.9271 25 29.6505 25.7234 29.6505 26.6129V32.2581H32.0699V24.1935C32.0699 23.304 31.3465 22.5806 30.457 22.5806H27.2312V20.9677H22.3925V22.4073C22.3925 23.8371 23.5554 25 24.9852 25ZM29.6505 33.871V37.0968H32.0699V33.871H29.6505ZM32.8763 16.129H30.1231L29.6505 15.6565L27.9683 17.3387L28.2328 17.6032C28.8425 18.2129 29.6529 18.5484 30.5142 18.5484H32.8763C33.5433 18.5484 34.086 18.0056 34.086 17.3387C34.086 16.6718 33.5433 16.129 32.8763 16.129ZM36.1021 21.7742V18.5484H35.4158C34.961 19.4984 33.9981 20.1613 32.8763 20.1613H30.5142C29.9344 20.1613 29.3723 20.0548 28.8441 19.8605V20.9677H30.457C32.236 20.9677 33.6828 22.4145 33.6828 24.1935V37.0968H34.9094C35.4779 36.4097 36.1497 35.8137 36.8973 35.3226L36.1021 21.7742ZM40.9408 20.1613V16.9355H39.3279C38.4384 16.9355 37.715 17.6589 37.715 18.5484C37.715 19.4379 38.4384 20.1613 39.3279 20.1613H40.9408ZM40.9408 33.0645H39.3836L38.5699 21.675C38.2642 21.6008 37.9787 21.4798 37.7134 21.325V21.7274L38.465 34.5081C39.2433 34.1968 40.0731 33.9911 40.9408 33.9121V33.0645ZM41.7473 48.3871C44.8594 48.3871 47.3925 45.854 47.3925 42.7419H45.0529L44.9715 42.7581C44.9626 44.5298 43.5207 45.9677 41.7473 45.9677C40.436 45.9677 39.2933 45.1581 38.7989 43.9927L37.0666 44.3395L36.3425 44.3419C37.0384 46.7 39.2191 48.3871 41.7473 48.3871ZM43.3207 43.0887L40.4416 43.6645C40.7344 44.0815 41.2126 44.3548 41.7473 44.3548C42.5175 44.3548 43.161 43.8113 43.3207 43.0887ZM36.8287 42.7419L44.8142 41.1452L47.9545 41.129L48.69 40.6395C48.507 40.0355 48.2433 39.4685 47.9191 38.9452L46.7763 39.5161H44.2545L37.0828 41.1105L36.7328 39.5355L43.9908 37.9226L46.3957 37.9032L46.8997 37.6508C45.5666 36.3073 43.7255 35.4839 41.7473 35.4839C37.7449 35.4839 34.4892 38.7395 34.4892 42.7419H36.8287ZM10.2957 48.3871C13.4078 48.3871 15.9408 45.854 15.9408 42.7419H13.5215C13.5215 44.521 12.0747 45.9677 10.2957 45.9677C8.51665 45.9677 7.06988 44.521 7.06988 42.7419H4.65052C4.65052 45.854 7.18359 48.3871 10.2957 48.3871ZM11.9086 42.7419H8.68278C8.68278 43.6315 9.40617 44.3548 10.2957 44.3548C11.1852 44.3548 11.9086 43.6315 11.9086 42.7419ZM2.93117 35.9355C2.71584 36.5798 2.55536 37.2379 2.43923 37.9032H18.3602V39.5161H2.2602C2.2473 39.7589 2.23117 40.0016 2.23117 40.246V41.129H33.0304C33.1884 40.2726 33.4699 39.4613 33.8554 38.7097H33.6828H28.0376H24.0054C20.8933 38.7097 18.3602 36.1766 18.3602 33.0645C18.3602 30.225 20.4666 27.8694 23.1989 27.4766V26.6129H16.7473H15.8642C9.98681 26.6129 4.79004 30.3597 2.93117 35.9355ZM2.23117 25H15.1344V12.9032H11.1021V18.5484H6.26343V12.9032H2.23117V25Z"/>
</mask>
<path d="M0.618264 11.2903H2.23117V0H15.1344V11.2903H16.7473V25H21.6997C21.1328 24.2831 20.7796 23.3903 20.7796 22.4073V12.0968C20.7796 10.8274 21.3812 9.70645 22.3013 8.96694C20.9078 8.11694 19.9731 6.5871 19.9731 4.83871C19.9731 2.17016 22.1433 0 24.8118 0C27.4804 0 29.6505 2.17016 29.6505 4.83871C29.6505 6.5871 28.7158 8.11694 27.3223 8.96694C28.2425 9.70645 28.8441 10.8274 28.8441 12.0968V12.5694L30.7908 14.5161H32.8763C34.2941 14.5161 35.4602 15.571 35.6578 16.9355H36.5505C37.1102 15.9758 38.1392 15.3226 39.3279 15.3226H42.5537V21.7742H40.1941L40.8852 31.4516H42.5537V33.9097C46.3376 34.2613 49.5699 37.0565 50.4029 40.8161L50.5215 41.3556L48.9916 42.3758C48.9997 42.5008 49.0054 42.6234 49.0054 42.7419C49.0054 46.7444 45.7497 50 41.7473 50C38.3368 50 35.4142 47.6153 34.6755 44.3484L32.9941 44.3548L32.9207 43.6298C32.8925 43.3371 32.8763 43.0419 32.8763 42.7419H17.5537C17.5537 46.7444 14.2981 50 10.2957 50C6.29326 50 3.03762 46.7444 3.03762 42.7419H0.618264V40.246C0.618264 38.6056 0.881165 36.9831 1.40133 35.4242C2.711 31.4944 5.50617 28.3798 9.03842 26.6121H0.618264V11.2903ZM9.48923 1.6129H7.87633V5.64516H9.48923V1.6129ZM13.5215 1.6129H11.1021V7.25806H6.26343V1.6129H3.84407V11.2903H13.5215V1.6129ZM7.87633 12.9032V16.9355H9.48923V12.9032H7.87633ZM28.0376 4.83871C28.0376 3.05968 26.5908 1.6129 24.8118 1.6129C23.0328 1.6129 21.586 3.05968 21.586 4.83871C21.586 6.61774 23.0328 8.06452 24.8118 8.06452C26.5908 8.06452 28.0376 6.61774 28.0376 4.83871ZM25.8546 11.8605L26.8715 10.8435C26.4457 10.1476 25.686 9.67742 24.8118 9.67742C23.4779 9.67742 22.3925 10.7629 22.3925 12.0968V19.3548H27.2312V18.8694C27.1852 18.8266 27.1368 18.7879 27.0925 18.7435L23.4352 15.0863L24.5755 13.946L26.8279 16.1984L28.5102 14.5161L25.8546 11.8605ZM24.0054 29.0323C21.782 29.0323 19.9731 30.8411 19.9731 33.0645C19.9731 35.2879 21.782 37.0968 24.0054 37.0968H28.0376V26.6129H24.9852C24.9255 26.6129 24.8707 26.5976 24.8118 26.5952V29.0323H24.0054ZM24.9852 25H28.0376C28.9271 25 29.6505 25.7234 29.6505 26.6129V32.2581H32.0699V24.1935C32.0699 23.304 31.3465 22.5806 30.457 22.5806H27.2312V20.9677H22.3925V22.4073C22.3925 23.8371 23.5554 25 24.9852 25ZM29.6505 33.871V37.0968H32.0699V33.871H29.6505ZM32.8763 16.129H30.1231L29.6505 15.6565L27.9683 17.3387L28.2328 17.6032C28.8425 18.2129 29.6529 18.5484 30.5142 18.5484H32.8763C33.5433 18.5484 34.086 18.0056 34.086 17.3387C34.086 16.6718 33.5433 16.129 32.8763 16.129ZM36.1021 21.7742V18.5484H35.4158C34.961 19.4984 33.9981 20.1613 32.8763 20.1613H30.5142C29.9344 20.1613 29.3723 20.0548 28.8441 19.8605V20.9677H30.457C32.236 20.9677 33.6828 22.4145 33.6828 24.1935V37.0968H34.9094C35.4779 36.4097 36.1497 35.8137 36.8973 35.3226L36.1021 21.7742ZM40.9408 20.1613V16.9355H39.3279C38.4384 16.9355 37.715 17.6589 37.715 18.5484C37.715 19.4379 38.4384 20.1613 39.3279 20.1613H40.9408ZM40.9408 33.0645H39.3836L38.5699 21.675C38.2642 21.6008 37.9787 21.4798 37.7134 21.325V21.7274L38.465 34.5081C39.2433 34.1968 40.0731 33.9911 40.9408 33.9121V33.0645ZM41.7473 48.3871C44.8594 48.3871 47.3925 45.854 47.3925 42.7419H45.0529L44.9715 42.7581C44.9626 44.5298 43.5207 45.9677 41.7473 45.9677C40.436 45.9677 39.2933 45.1581 38.7989 43.9927L37.0666 44.3395L36.3425 44.3419C37.0384 46.7 39.2191 48.3871 41.7473 48.3871ZM43.3207 43.0887L40.4416 43.6645C40.7344 44.0815 41.2126 44.3548 41.7473 44.3548C42.5175 44.3548 43.161 43.8113 43.3207 43.0887ZM36.8287 42.7419L44.8142 41.1452L47.9545 41.129L48.69 40.6395C48.507 40.0355 48.2433 39.4685 47.9191 38.9452L46.7763 39.5161H44.2545L37.0828 41.1105L36.7328 39.5355L43.9908 37.9226L46.3957 37.9032L46.8997 37.6508C45.5666 36.3073 43.7255 35.4839 41.7473 35.4839C37.7449 35.4839 34.4892 38.7395 34.4892 42.7419H36.8287ZM10.2957 48.3871C13.4078 48.3871 15.9408 45.854 15.9408 42.7419H13.5215C13.5215 44.521 12.0747 45.9677 10.2957 45.9677C8.51665 45.9677 7.06988 44.521 7.06988 42.7419H4.65052C4.65052 45.854 7.18359 48.3871 10.2957 48.3871ZM11.9086 42.7419H8.68278C8.68278 43.6315 9.40617 44.3548 10.2957 44.3548C11.1852 44.3548 11.9086 43.6315 11.9086 42.7419ZM2.93117 35.9355C2.71584 36.5798 2.55536 37.2379 2.43923 37.9032H18.3602V39.5161H2.2602C2.2473 39.7589 2.23117 40.0016 2.23117 40.246V41.129H33.0304C33.1884 40.2726 33.4699 39.4613 33.8554 38.7097H33.6828H28.0376H24.0054C20.8933 38.7097 18.3602 36.1766 18.3602 33.0645C18.3602 30.225 20.4666 27.8694 23.1989 27.4766V26.6129H16.7473H15.8642C9.98681 26.6129 4.79004 30.3597 2.93117 35.9355ZM2.23117 25H15.1344V12.9032H11.1021V18.5484H6.26343V12.9032H2.23117V25Z" fill="#F39C12"/>
<path d="M0.618264 11.2903H2.23117V0H15.1344V11.2903H16.7473V25H21.6997C21.1328 24.2831 20.7796 23.3903 20.7796 22.4073V12.0968C20.7796 10.8274 21.3812 9.70645 22.3013 8.96694C20.9078 8.11694 19.9731 6.5871 19.9731 4.83871C19.9731 2.17016 22.1433 0 24.8118 0C27.4804 0 29.6505 2.17016 29.6505 4.83871C29.6505 6.5871 28.7158 8.11694 27.3223 8.96694C28.2425 9.70645 28.8441 10.8274 28.8441 12.0968V12.5694L30.7908 14.5161H32.8763C34.2941 14.5161 35.4602 15.571 35.6578 16.9355H36.5505C37.1102 15.9758 38.1392 15.3226 39.3279 15.3226H42.5537V21.7742H40.1941L40.8852 31.4516H42.5537V33.9097C46.3376 34.2613 49.5699 37.0565 50.4029 40.8161L50.5215 41.3556L48.9916 42.3758C48.9997 42.5008 49.0054 42.6234 49.0054 42.7419C49.0054 46.7444 45.7497 50 41.7473 50C38.3368 50 35.4142 47.6153 34.6755 44.3484L32.9941 44.3548L32.9207 43.6298C32.8925 43.3371 32.8763 43.0419 32.8763 42.7419H17.5537C17.5537 46.7444 14.2981 50 10.2957 50C6.29326 50 3.03762 46.7444 3.03762 42.7419H0.618264V40.246C0.618264 38.6056 0.881165 36.9831 1.40133 35.4242C2.711 31.4944 5.50617 28.3798 9.03842 26.6121H0.618264V11.2903ZM9.48923 1.6129H7.87633V5.64516H9.48923V1.6129ZM13.5215 1.6129H11.1021V7.25806H6.26343V1.6129H3.84407V11.2903H13.5215V1.6129ZM7.87633 12.9032V16.9355H9.48923V12.9032H7.87633ZM28.0376 4.83871C28.0376 3.05968 26.5908 1.6129 24.8118 1.6129C23.0328 1.6129 21.586 3.05968 21.586 4.83871C21.586 6.61774 23.0328 8.06452 24.8118 8.06452C26.5908 8.06452 28.0376 6.61774 28.0376 4.83871ZM25.8546 11.8605L26.8715 10.8435C26.4457 10.1476 25.686 9.67742 24.8118 9.67742C23.4779 9.67742 22.3925 10.7629 22.3925 12.0968V19.3548H27.2312V18.8694C27.1852 18.8266 27.1368 18.7879 27.0925 18.7435L23.4352 15.0863L24.5755 13.946L26.8279 16.1984L28.5102 14.5161L25.8546 11.8605ZM24.0054 29.0323C21.782 29.0323 19.9731 30.8411 19.9731 33.0645C19.9731 35.2879 21.782 37.0968 24.0054 37.0968H28.0376V26.6129H24.9852C24.9255 26.6129 24.8707 26.5976 24.8118 26.5952V29.0323H24.0054ZM24.9852 25H28.0376C28.9271 25 29.6505 25.7234 29.6505 26.6129V32.2581H32.0699V24.1935C32.0699 23.304 31.3465 22.5806 30.457 22.5806H27.2312V20.9677H22.3925V22.4073C22.3925 23.8371 23.5554 25 24.9852 25ZM29.6505 33.871V37.0968H32.0699V33.871H29.6505ZM32.8763 16.129H30.1231L29.6505 15.6565L27.9683 17.3387L28.2328 17.6032C28.8425 18.2129 29.6529 18.5484 30.5142 18.5484H32.8763C33.5433 18.5484 34.086 18.0056 34.086 17.3387C34.086 16.6718 33.5433 16.129 32.8763 16.129ZM36.1021 21.7742V18.5484H35.4158C34.961 19.4984 33.9981 20.1613 32.8763 20.1613H30.5142C29.9344 20.1613 29.3723 20.0548 28.8441 19.8605V20.9677H30.457C32.236 20.9677 33.6828 22.4145 33.6828 24.1935V37.0968H34.9094C35.4779 36.4097 36.1497 35.8137 36.8973 35.3226L36.1021 21.7742ZM40.9408 20.1613V16.9355H39.3279C38.4384 16.9355 37.715 17.6589 37.715 18.5484C37.715 19.4379 38.4384 20.1613 39.3279 20.1613H40.9408ZM40.9408 33.0645H39.3836L38.5699 21.675C38.2642 21.6008 37.9787 21.4798 37.7134 21.325V21.7274L38.465 34.5081C39.2433 34.1968 40.0731 33.9911 40.9408 33.9121V33.0645ZM41.7473 48.3871C44.8594 48.3871 47.3925 45.854 47.3925 42.7419H45.0529L44.9715 42.7581C44.9626 44.5298 43.5207 45.9677 41.7473 45.9677C40.436 45.9677 39.2933 45.1581 38.7989 43.9927L37.0666 44.3395L36.3425 44.3419C37.0384 46.7 39.2191 48.3871 41.7473 48.3871ZM43.3207 43.0887L40.4416 43.6645C40.7344 44.0815 41.2126 44.3548 41.7473 44.3548C42.5175 44.3548 43.161 43.8113 43.3207 43.0887ZM36.8287 42.7419L44.8142 41.1452L47.9545 41.129L48.69 40.6395C48.507 40.0355 48.2433 39.4685 47.9191 38.9452L46.7763 39.5161H44.2545L37.0828 41.1105L36.7328 39.5355L43.9908 37.9226L46.3957 37.9032L46.8997 37.6508C45.5666 36.3073 43.7255 35.4839 41.7473 35.4839C37.7449 35.4839 34.4892 38.7395 34.4892 42.7419H36.8287ZM10.2957 48.3871C13.4078 48.3871 15.9408 45.854 15.9408 42.7419H13.5215C13.5215 44.521 12.0747 45.9677 10.2957 45.9677C8.51665 45.9677 7.06988 44.521 7.06988 42.7419H4.65052C4.65052 45.854 7.18359 48.3871 10.2957 48.3871ZM11.9086 42.7419H8.68278C8.68278 43.6315 9.40617 44.3548 10.2957 44.3548C11.1852 44.3548 11.9086 43.6315 11.9086 42.7419ZM2.93117 35.9355C2.71584 36.5798 2.55536 37.2379 2.43923 37.9032H18.3602V39.5161H2.2602C2.2473 39.7589 2.23117 40.0016 2.23117 40.246V41.129H33.0304C33.1884 40.2726 33.4699 39.4613 33.8554 38.7097H33.6828H28.0376H24.0054C20.8933 38.7097 18.3602 36.1766 18.3602 33.0645C18.3602 30.225 20.4666 27.8694 23.1989 27.4766V26.6129H16.7473H15.8642C9.98681 26.6129 4.79004 30.3597 2.93117 35.9355ZM2.23117 25H15.1344V12.9032H11.1021V18.5484H6.26343V12.9032H2.23117V25Z" stroke="#F39C12" stroke-width="0.6" mask="url(#path-1-outside-1_965_3018)"/>
</g>
</g>
</g>
</svg>
