<svg xmlns="http://www.w3.org/2000/svg" width="30" height="30" viewBox="0 0 30 30" fill="none">
<g clip-path="url(#clip0_1501_10684)">
<path d="M18.8672 24.375C18.8672 26.4463 17.6572 28.125 15.5859 28.125H7.85156C5.78027 28.125 4.57031 26.4463 4.57031 24.375M19.6875 19.6875C20.7229 19.6875 21.5625 20.7369 21.5625 22.0312C21.5625 23.3256 20.7229 24.375 19.6875 24.375H3.75C2.71465 24.375 1.875 23.3256 1.875 22.0312C1.875 20.7369 2.71465 19.6875 3.75 19.6875" stroke="#F39C12" stroke-width="2" stroke-miterlimit="10" stroke-linecap="round"/>
<path d="M3.75 16.1719V16.159C3.75 12.9363 6.38672 11.25 9.60938 11.25H13.8281C17.0508 11.25 19.6875 12.9492 19.6875 16.1719V16.159M14.1211 6.5625L14.557 10.3107M20.1562 19.6875H10.5064C10.3823 19.6876 10.2632 19.7369 10.1754 19.8246L8.60332 21.3967C8.58155 21.4185 8.5557 21.4358 8.52725 21.4476C8.4988 21.4593 8.4683 21.4654 8.4375 21.4654C8.4067 21.4654 8.3762 21.4593 8.34775 21.4476C8.3193 21.4358 8.29345 21.4185 8.27168 21.3967L6.69961 19.8246C6.61177 19.7369 6.49271 19.6876 6.36855 19.6875H3.28125C2.90829 19.6875 2.5506 19.5393 2.28688 19.2756C2.02316 19.0119 1.875 18.6542 1.875 18.2812C1.875 17.9083 2.02316 17.5506 2.28688 17.2869C2.5506 17.0232 2.90829 16.875 3.28125 16.875H20.1562C20.5292 16.875 20.8869 17.0232 21.1506 17.2869C21.4143 17.5506 21.5625 17.9083 21.5625 18.2812C21.5625 18.6542 21.4143 19.0119 21.1506 19.2756C20.8869 19.5393 20.5292 19.6875 20.1562 19.6875Z" stroke="#F39C12" stroke-width="2" stroke-miterlimit="10" stroke-linecap="round"/>
<path d="M15 28.125H23.1627C23.6357 28.125 24.0913 27.9462 24.438 27.6244C24.7848 27.3027 24.9971 26.8618 25.0324 26.39L27.1289 6.5625" stroke="#F39C12" stroke-width="2" stroke-miterlimit="10" stroke-linecap="round"/>
<path d="M21.5625 6.5625L22.5 2.8125L25.2539 1.875" stroke="#F39C12" stroke-width="2" stroke-linecap="round" stroke-linejoin="round"/>
<path d="M13.125 6.5625H28.125" stroke="#F39C12" stroke-width="2" stroke-miterlimit="10" stroke-linecap="round"/>
</g>
<defs>
<clipPath id="clip0_1501_10684">
<rect width="30" height="30" fill="white"/>
</clipPath>
</defs>
</svg>