<svg width="25" height="25" viewBox="0 0 25 25" fill="none" xmlns="http://www.w3.org/2000/svg">
<g id="food_bank_24dp_5F6368_FILL0_wght400_GRAD0_opsz24 1">
<path id="Vector" d="M6.35156 21.0132C5.80156 21.0132 5.33073 20.8174 4.93906 20.4257C4.5474 20.034 4.35156 19.5632 4.35156 19.0132V10.0132C4.35156 9.69652 4.4224 9.39652 4.56406 9.11318C4.70573 8.82985 4.90156 8.59652 5.15156 8.41318L11.1516 3.91318C11.5016 3.64652 11.9016 3.51318 12.3516 3.51318C12.8016 3.51318 13.2016 3.64652 13.5516 3.91318L19.5516 8.41318C19.8016 8.59652 19.9974 8.82985 20.1391 9.11318C20.2807 9.39652 20.3516 9.69652 20.3516 10.0132V19.0132C20.3516 19.5632 20.1557 20.034 19.7641 20.4257C19.3724 20.8174 18.9016 21.0132 18.3516 21.0132H6.35156ZM6.35156 19.0132H18.3516V10.0132L12.3516 5.51318L6.35156 10.0132V19.0132ZM10.8516 18.0132C10.9849 18.0132 11.1016 17.9632 11.2016 17.8632C11.3016 17.7632 11.3516 17.6465 11.3516 17.5132V14.0132C11.7682 14.0132 12.1224 13.8674 12.4141 13.5757C12.7057 13.284 12.8516 12.9299 12.8516 12.5132V10.0132C12.8516 9.87985 12.8016 9.76318 12.7016 9.66318C12.6016 9.56318 12.4849 9.51318 12.3516 9.51318C12.2182 9.51318 12.1016 9.56318 12.0016 9.66318C11.9016 9.76318 11.8516 9.87985 11.8516 10.0132V12.5132H11.3516V10.0132C11.3516 9.87985 11.3016 9.76318 11.2016 9.66318C11.1016 9.56318 10.9849 9.51318 10.8516 9.51318C10.7182 9.51318 10.6016 9.56318 10.5016 9.66318C10.4016 9.76318 10.3516 9.87985 10.3516 10.0132V12.5132H9.85156V10.0132C9.85156 9.87985 9.80156 9.76318 9.70156 9.66318C9.60156 9.56318 9.4849 9.51318 9.35156 9.51318C9.21823 9.51318 9.10156 9.56318 9.00156 9.66318C8.90156 9.76318 8.85156 9.87985 8.85156 10.0132V12.5132C8.85156 12.9299 8.9974 13.284 9.28906 13.5757C9.58073 13.8674 9.9349 14.0132 10.3516 14.0132V17.5132C10.3516 17.6465 10.4016 17.7632 10.5016 17.8632C10.6016 17.9632 10.7182 18.0132 10.8516 18.0132ZM14.8516 18.0132C14.9849 18.0132 15.1016 17.9632 15.2016 17.8632C15.3016 17.7632 15.3516 17.6465 15.3516 17.5132V10.1632C15.3516 9.97985 15.2891 9.82568 15.1641 9.70068C15.0391 9.57568 14.8849 9.51318 14.7016 9.51318C14.2516 9.51318 13.9141 9.72152 13.6891 10.1382C13.4641 10.5549 13.3516 11.0132 13.3516 11.5132V13.5132C13.3516 13.7799 13.4724 13.9674 13.7141 14.0757C13.9557 14.184 14.1682 14.3299 14.3516 14.5132V17.5132C14.3516 17.6465 14.4016 17.7632 14.5016 17.8632C14.6016 17.9632 14.7182 18.0132 14.8516 18.0132Z" fill="#242828"/>
</g>
</svg>
