<svg width="36" height="50" viewBox="0 0 36 50" fill="none" xmlns="http://www.w3.org/2000/svg">
<g id="Group">
<path id="Vector" d="M8.23073 20.7369H14.431C14.8012 20.7369 15.1012 20.4368 15.1012 20.0668V13.8665C15.1012 13.4964 14.8012 13.1963 14.431 13.1963H8.23073C7.86052 13.1963 7.56055 13.4964 7.56055 13.8665V20.0668C7.56055 20.4368 7.86052 20.7369 8.23073 20.7369ZM8.90092 14.5367H13.7608V19.3966H8.90092V14.5367Z" fill="#242828" stroke="#242828" stroke-width="0.7"/>
<path id="Vector_2" d="M7.56055 29.8509C7.56055 30.221 7.86052 30.5211 8.23073 30.5211H14.431C14.8012 30.5211 15.1012 30.221 15.1012 29.8509V23.6507C15.1012 23.2806 14.8012 22.9805 14.431 22.9805H8.23073C7.86052 22.9805 7.56055 23.2806 7.56055 23.6507V29.8509ZM8.90092 24.3208H13.7608V29.1808H8.90092V24.3208Z" fill="#242828" stroke="#242828" stroke-width="0.7"/>
<path id="Vector_3" d="M7.56055 39.6361C7.56055 40.0062 7.86052 40.3063 8.23073 40.3063H14.431C14.8012 40.3063 15.1012 40.0062 15.1012 39.6361V33.4358C15.1012 33.0657 14.8012 32.7656 14.431 32.7656H8.23073C7.86052 32.7656 7.56055 33.0657 7.56055 33.4358V39.6361ZM8.90092 34.106H13.7608V38.9659H8.90092V34.106Z" fill="#242828" stroke="#242828" stroke-width="0.7"/>
<path id="Vector_4" d="M27.085 16.2959H20.0257C19.6554 16.2959 19.3555 16.596 19.3555 16.9661C19.3555 17.3362 19.6554 17.6363 20.0257 17.6363H27.085C27.4552 17.6363 27.7552 17.3362 27.7552 16.9661C27.7552 16.596 27.4552 16.2959 27.085 16.2959Z" fill="#242828" stroke="#242828" stroke-width="0.7"/>
<path id="Vector_5" d="M17.4339 17.6363H18.2381C18.6083 17.6363 18.9083 17.3362 18.9083 16.9661C18.9083 16.596 18.6083 16.2959 18.2381 16.2959H17.4339C17.0636 16.2959 16.7637 16.596 16.7637 16.9661C16.7637 17.3362 17.0636 17.6363 17.4339 17.6363Z" fill="#242828" stroke="#242828" stroke-width="0.7"/>
<path id="Vector_6" d="M27.0843 26.0811H23.8675C23.4972 26.0811 23.1973 26.3812 23.1973 26.7512C23.1973 27.1213 23.4972 27.4214 23.8675 27.4214H27.0843C27.4546 27.4214 27.7545 27.1213 27.7545 26.7512C27.7545 26.3812 27.4546 26.0811 27.0843 26.0811Z" fill="#242828" stroke="#242828" stroke-width="0.7"/>
<path id="Vector_7" d="M17.4339 27.4214H21.9017C22.2719 27.4214 22.5719 27.1213 22.5719 26.7512C22.5719 26.3812 22.2719 26.0811 21.9017 26.0811H17.4339C17.0636 26.0811 16.7637 26.3812 16.7637 26.7512C16.7637 27.1213 17.0636 27.4214 17.4339 27.4214Z" fill="#242828" stroke="#242828" stroke-width="0.7"/>
<path id="Vector_8" d="M17.4339 37.2056H27.0845C27.4547 37.2056 27.7547 36.9055 27.7547 36.5354C27.7547 36.1653 27.4547 35.8652 27.0845 35.8652H17.4339C17.0636 35.8652 16.7637 36.1653 16.7637 36.5354C16.7637 36.9055 17.0636 37.2056 17.4339 37.2056Z" fill="#242828" stroke="#242828" stroke-width="0.7"/>
<path id="Vector_9" d="M12.7974 14.9043C12.4597 14.7532 12.0631 14.9044 11.9118 15.2423L11.0506 17.1671L10.4905 16.4318C10.2661 16.1374 9.84574 16.0802 9.55112 16.3048C9.25678 16.5291 9.19994 16.9497 9.42419 17.244L10.6683 18.877C10.7959 19.0444 10.9938 19.1411 11.2014 19.1411C11.227 19.1411 11.2529 19.1396 11.2785 19.1366C11.5134 19.1094 11.7168 18.9605 11.8133 18.7446L13.1353 15.7896C13.2866 15.4519 13.1353 15.0555 12.7974 14.9043Z" fill="#242828" stroke="#242828" stroke-width="0.7"/>
<g id="Group_2">
<path id="Vector_10" d="M1.64479 10.388C2.01487 10.388 2.31498 10.0879 2.31498 9.71782V6.65615C2.31498 5.95728 2.88357 5.38856 3.58257 5.38856H10.9358V8.07868H5.34878C4.9787 8.07868 4.67859 8.37879 4.67859 8.74887V43.3586C4.67859 43.7287 4.9787 44.0288 5.34878 44.0288H31.3064C31.6765 44.0288 31.9766 43.7287 31.9766 43.3586V8.74887C31.9766 8.37879 31.6765 8.07868 31.3064 8.07868H25.7692V5.38856H32.9899C33.6876 5.38856 34.2552 5.95741 34.2552 6.65655V42.8988C34.2552 43.2689 34.5553 43.569 34.9254 43.569C35.2955 43.569 35.5956 43.2689 35.5956 42.8988V6.65655C35.5956 5.21833 34.4267 4.04819 32.9899 4.04819H25.7692V2.99345C25.7692 2.62337 25.4691 2.32327 25.099 2.32327H22.4535C21.5965 0.899255 20.0304 0 18.3525 0C16.6746 0 15.1086 0.899255 14.2515 2.32327H11.606C11.236 2.32327 10.9358 2.62337 10.9358 2.99345V4.04819H3.58257C2.14448 4.04819 0.974609 5.21806 0.974609 6.65615V9.71796C0.974609 10.088 1.27472 10.388 1.64479 10.388ZM11.606 10.9016H19.2463C19.6164 10.9016 19.9165 10.6015 19.9165 10.2315C19.9165 9.86138 19.6164 9.56127 19.2463 9.56127H12.2762V3.66364H14.65C14.907 3.66364 15.1415 3.5166 15.2533 3.28525C15.8247 2.10385 17.0412 1.34037 18.3525 1.34037C19.6638 1.34037 20.8803 2.10385 21.4517 3.28525C21.5636 3.5166 21.7981 3.66364 22.055 3.66364H24.4288V9.56127H21.7929C21.4228 9.56127 21.1227 9.86138 21.1227 10.2315C21.1227 10.6015 21.4228 10.9016 21.7929 10.9016H25.099C25.4691 10.9016 25.7692 10.6015 25.7692 10.2315V9.41906H30.6362V42.6884H6.01896V9.41906H10.9358V10.2315C10.9358 10.6017 11.2358 10.9016 11.606 10.9016Z" fill="#242828" stroke="#242828" stroke-width="0.7"/>
<path id="Vector_11" d="M1.6448 11.2529C1.27472 11.2529 0.974609 11.553 0.974609 11.9231V12.837C0.974609 13.2071 1.27472 13.5072 1.6448 13.5072C2.01487 13.5072 2.31498 13.2071 2.31498 12.837V11.9231C2.31498 11.5529 2.01487 11.2529 1.6448 11.2529Z" fill="#242828" stroke="#242828" stroke-width="0.7"/>
<path id="Vector_12" d="M34.925 44.6017C34.5549 44.6017 34.2548 44.9018 34.2548 45.2719V47.3933C34.2548 48.0917 33.6866 48.6598 32.9883 48.6598H3.5815C2.88316 48.6598 2.31498 48.0917 2.31498 47.3933V15.0423C2.31498 14.6722 2.01487 14.3721 1.64479 14.3721C1.27472 14.3721 0.974609 14.6722 0.974609 15.0423V47.3933C0.974609 48.8307 2.14408 50.0002 3.5815 50.0002H32.9883C34.4257 50.0002 35.5952 48.8307 35.5952 47.3933V45.2719C35.5952 44.9018 35.2951 44.6017 34.925 44.6017Z" fill="#242828" stroke="#242828" stroke-width="0.7"/>
<path id="Vector_13" d="M18.3283 5.3813C19.0501 5.3813 19.6352 4.7962 19.6352 4.07444C19.6352 3.35268 19.0501 2.76758 18.3283 2.76758C17.6066 2.76758 17.0215 3.35268 17.0215 4.07444C17.0215 4.7962 17.6066 5.3813 18.3283 5.3813Z" fill="#242828" stroke="#242828" stroke-width="0.7"/>
</g>
</g>
</svg>
