<svg width="51" height="50" viewBox="0 0 51 50" fill="none" xmlns="http://www.w3.org/2000/svg">
<g id="home_svgrepo.com">
<path id="Vector" d="M25.8893 3.99803C25.8424 3.95114 25.7788 3.9248 25.7125 3.9248C25.6462 3.9248 25.5826 3.95114 25.5357 3.99803L17.6328 11.9009V9.17168C17.6328 9.03361 17.5209 8.92168 17.3828 8.92168H10.7188C10.5807 8.92168 10.4688 9.03361 10.4688 9.17168V19.065L4.67479 24.859C4.6279 24.9059 4.60156 24.9694 4.60156 25.0357C4.60156 25.102 4.6279 25.1656 4.67479 25.2125L5.85291 26.3906C5.95054 26.4883 6.10883 26.4883 6.20646 26.3906L25.7125 6.88461L45.2185 26.3906C45.2654 26.4375 45.329 26.4639 45.3953 26.4639C45.4616 26.4639 45.5252 26.4375 45.5721 26.3906L46.7502 25.2125C46.8478 25.1149 46.8478 24.9566 46.7502 24.859L25.8893 3.99803ZM12.6328 11.0889H15.4656V14.0666L12.6328 16.8994V11.0889Z" fill="#F39C12" stroke="#F39C12" stroke-width="0.5" stroke-linejoin="round"/>
<path id="Vector_2" d="M25.5373 10.6621L10.5594 25.64C10.504 25.6858 10.4688 25.7551 10.4688 25.8326V45.8248C10.4688 45.9629 10.5807 46.0748 10.7188 46.0748H22.3813C22.5193 46.0748 22.6313 45.9629 22.6313 45.8248V34.4123H28.7953V45.8248C28.7953 45.9629 28.9072 46.0748 29.0453 46.0748H40.7078C40.8459 46.0748 40.9578 45.9629 40.9578 45.8248V25.8326C40.9578 25.7663 40.9315 25.7027 40.8846 25.6558L25.8908 10.6621C25.844 10.6152 25.7804 10.5889 25.7141 10.5889C25.6478 10.5889 25.5842 10.6152 25.5373 10.6621ZM38.7906 26.6268V43.9092H30.9609V32.4967C30.9609 32.3586 30.849 32.2467 30.7109 32.2467H20.7141C20.576 32.2467 20.4641 32.3586 20.4641 32.4967V43.9092H12.6344V26.6268L25.7125 13.5487L38.7906 26.6268Z" fill="#F39C12" stroke="#F39C12" stroke-width="0.5" stroke-linejoin="round"/>
</g>
</svg>
