<svg width="27" height="27" viewBox="0 0 27 27" fill="none" xmlns="http://www.w3.org/2000/svg">
<g id="Icon_facebook" clip-path="url(#clip0_1270_2085)">
<path id="Vector" d="M2.86364 0.772949C1.57073 0.772949 0.5 1.84368 0.5 3.13659V24.4093C0.5 25.7022 1.57073 26.7729 2.86364 26.7729H24.1364C25.4293 26.7729 26.5 25.7022 26.5 24.4093V3.13659C26.5 1.84368 25.4293 0.772949 24.1364 0.772949H2.86364ZM2.86364 3.13659H24.1364V24.4093H18.0051V16.432H21.0707L21.5139 12.8866H18.0063V10.5962C18.0063 9.56331 18.2592 8.86131 19.7412 8.86131H21.6616V5.64795C21.3343 5.60659 20.1985 5.53686 18.8926 5.53686C16.1685 5.53686 14.3131 7.17604 14.3131 10.2275V12.8866H11.2108V16.432H14.3119V24.4093H2.86364V3.13659Z" fill="#F39C12"/>
</g>
<defs>
<clipPath id="clip0_1270_2085">
<rect width="26" height="26" fill="white" transform="translate(0.5 0.772949)"/>
</clipPath>
</defs>
</svg>
