<svg width="29" height="29" viewBox="0 0 29 29" fill="none" xmlns="http://www.w3.org/2000/svg">
<g id="Icon_instagram" clip-path="url(#clip0_1270_2082)">
<path id="Vector" d="M8.73327 0.772949C4.21382 0.772949 0.5 4.48168 0.5 9.00622V20.5397C0.5 25.0591 4.20873 28.7729 8.73327 28.7729H20.2667C24.7862 28.7729 28.5 25.0642 28.5 20.5397V9.00749C28.5 4.48677 24.7913 0.772949 20.2667 0.772949H8.73327ZM8.73327 3.3184H20.2667C21.0139 3.3174 21.754 3.46383 22.4445 3.74932C23.1351 4.0348 23.7625 4.45372 24.2909 4.98209C24.8192 5.51045 25.2381 6.13787 25.5236 6.8284C25.8091 7.51893 25.9555 8.259 25.9545 9.00622V20.5397C25.9555 21.2869 25.8091 22.027 25.5236 22.7175C25.2381 23.408 24.8192 24.0354 24.2909 24.5638C23.7625 25.0922 23.1351 25.5111 22.4445 25.7966C21.754 26.0821 21.0139 26.2285 20.2667 26.2275H8.73455C7.98722 26.2287 7.24701 26.0824 6.55633 25.7969C5.86565 25.5115 5.23808 25.0926 4.70959 24.5643C4.18109 24.0359 3.76205 23.4084 3.47649 22.7178C3.19092 22.0272 3.04445 21.287 3.04545 20.5397C3.04545 20.5397 3.04663 9.75482 3.04545 9.00749C3.04428 8.26017 3.19059 7.51996 3.476 6.82928C3.76141 6.1386 4.1803 5.51103 4.70868 4.98253C5.23706 4.45404 5.86454 4.035 6.55515 3.74944C7.24577 3.46387 7.98595 3.3174 8.73327 3.3184ZM22.0167 6.10313C21.8651 6.10246 21.7149 6.13182 21.5747 6.18953C21.4345 6.24724 21.3071 6.33215 21.1999 6.43936C21.0927 6.54657 21.0077 6.67395 20.95 6.81416C20.8923 6.95436 20.863 7.10461 20.8636 7.25622C20.8636 7.89768 21.3753 8.40931 22.0167 8.40931C22.1684 8.41016 22.3188 8.38091 22.4592 8.32328C22.5995 8.26565 22.7271 8.18076 22.8344 8.07354C22.9418 7.96631 23.0268 7.83887 23.0846 7.69858C23.1424 7.5583 23.1718 7.40794 23.1711 7.25622C23.1718 7.1045 23.1424 6.95415 23.0846 6.81386C23.0268 6.67357 22.9418 6.54613 22.8344 6.43891C22.7271 6.33168 22.5995 6.2468 22.4592 6.18916C22.3188 6.13153 22.1684 6.10229 22.0167 6.10313ZM14.5 7.13659C10.3 7.13659 6.86364 10.5729 6.86364 14.7729C6.86364 18.9729 10.3 22.4093 14.5 22.4093C18.7 22.4093 22.1364 18.9729 22.1364 14.7729C22.1364 10.5729 18.7 7.13659 14.5 7.13659ZM14.5 9.68204C17.3293 9.68204 19.5909 11.9437 19.5909 14.7729C19.5909 17.6022 17.3293 19.8639 14.5 19.8639C11.6707 19.8639 9.40909 17.6022 9.40909 14.7729C9.40909 11.9437 11.6707 9.68204 14.5 9.68204Z" fill="#F39C12"/>
</g>
<defs>
<clipPath id="clip0_1270_2082">
<rect width="28" height="28" fill="white" transform="translate(0.5 0.772949)"/>
</clipPath>
</defs>
</svg>
