<svg width="31" height="31" viewBox="0 0 31 31" fill="none" xmlns="http://www.w3.org/2000/svg">
<g id="location-outline">
<path id="Vector" d="M15.5 3.40063C10.8418 3.40063 7.0625 6.99771 7.0625 11.428C7.0625 16.5256 12.6875 24.604 14.7529 27.3942C14.8387 27.512 14.951 27.6078 15.0809 27.6739C15.2107 27.74 15.3543 27.7744 15.5 27.7744C15.6457 27.7744 15.7893 27.74 15.9191 27.6739C16.049 27.6078 16.1613 27.512 16.2471 27.3942C18.3125 24.6051 23.9375 16.5297 23.9375 11.428C23.9375 6.99771 20.1582 3.40063 15.5 3.40063Z" stroke="#F9BB26" stroke-width="2" stroke-linecap="round" stroke-linejoin="round"/>
<path id="Vector_2" d="M15.5 14.6506C17.0533 14.6506 18.3125 13.3914 18.3125 11.8381C18.3125 10.2848 17.0533 9.02563 15.5 9.02563C13.9467 9.02563 12.6875 10.2848 12.6875 11.8381C12.6875 13.3914 13.9467 14.6506 15.5 14.6506Z" stroke="#F9BB26" stroke-width="2" stroke-linecap="round" stroke-linejoin="round"/>
</g>
</svg>
