<svg xmlns="http://www.w3.org/2000/svg" width="30" height="30" viewBox="0 0 30 30" fill="none">
<g id="Restaurant Location">
<path id="Vector" d="M6.25 23.125C6.25 25.2725 11.11 26.25 15.625 26.25C20.14 26.25 25 25.2725 25 23.125C25 21.42 22.0487 20.65 19.9225 20.3175L21.375 18.875C22.5114 17.7387 23.2853 16.291 23.5988 14.7149C23.9124 13.1388 23.7515 11.5051 23.1366 10.0204C22.5216 8.53568 21.4802 7.26669 20.1441 6.37387C18.8079 5.48106 17.237 5.00452 15.63 5.00452C14.023 5.00452 12.4521 5.48106 11.1159 6.37387C9.77976 7.26669 8.73836 8.53568 8.12341 10.0204C7.50847 11.5051 7.34761 13.1388 7.66117 14.7149C7.97473 16.291 8.74863 17.7387 9.885 18.875L11.3325 20.3225C9.20125 20.65 6.25 21.42 6.25 23.125ZM16.875 10C16.875 9.88393 16.9073 9.77015 16.9683 9.67142C17.0294 9.57268 17.1167 9.49289 17.2205 9.44098C17.3243 9.38908 17.4405 9.3671 17.5561 9.37753C17.6717 9.38795 17.7821 9.43036 17.875 9.5C18.6489 10.0807 19.2916 10.8182 19.761 11.6643C20.2303 12.5104 20.5158 13.446 20.5988 14.41C20.6262 14.7061 20.5464 15.0023 20.3739 15.2446C20.2014 15.4868 19.9476 15.6591 19.6588 15.73L18.125 16.1138V17.5C18.125 17.6658 18.0592 17.8247 17.9419 17.9419C17.8247 18.0592 17.6658 18.125 17.5 18.125C17.3342 18.125 17.1753 18.0592 17.0581 17.9419C16.9408 17.8247 16.875 17.6658 16.875 17.5V10ZM11.25 11.25V10C11.25 9.83424 11.3158 9.67527 11.4331 9.55806C11.5503 9.44085 11.7092 9.375 11.875 9.375C12.0408 9.375 12.1997 9.44085 12.3169 9.55806C12.4342 9.67527 12.5 9.83424 12.5 10V11.25C12.5025 11.4656 12.5615 11.6767 12.6712 11.8623C12.7809 12.0478 12.9374 12.2014 13.125 12.3075V10C13.125 9.83424 13.1908 9.67527 13.3081 9.55806C13.4253 9.44085 13.5842 9.375 13.75 9.375C13.9158 9.375 14.0747 9.44085 14.1919 9.55806C14.3092 9.67527 14.375 9.83424 14.375 10V12.3075C14.5626 12.2014 14.7191 12.0478 14.8288 11.8623C14.9385 11.6767 14.9975 11.4656 15 11.25V10C15 9.83424 15.0658 9.67527 15.1831 9.55806C15.3003 9.44085 15.4592 9.375 15.625 9.375C15.7908 9.375 15.9497 9.44085 16.0669 9.55806C16.1842 9.67527 16.25 9.83424 16.25 10V11.25C16.2479 11.8026 16.0628 12.339 15.7236 12.7753C15.3843 13.2115 14.9101 13.5231 14.375 13.6613V17.5C14.375 17.6658 14.3092 17.8247 14.1919 17.9419C14.0747 18.0592 13.9158 18.125 13.75 18.125C13.5842 18.125 13.4253 18.0592 13.3081 17.9419C13.1908 17.8247 13.125 17.6658 13.125 17.5V13.6613C12.5899 13.5231 12.1157 13.2115 11.7764 12.7753C11.4372 12.339 11.2521 11.8026 11.25 11.25ZM12.4425 21.4325L14.2987 23.29C14.4729 23.4642 14.6796 23.6025 14.9072 23.6968C15.1348 23.7911 15.3787 23.8396 15.625 23.8396C15.8713 23.8396 16.1152 23.7911 16.3428 23.6968C16.5704 23.6025 16.7771 23.4642 16.9513 23.29L18.8075 21.4325C22.2425 21.83 23.75 22.735 23.75 23.125C23.75 23.685 20.9862 25 15.625 25C10.2638 25 7.5 23.685 7.5 23.125C7.5 22.735 9.0075 21.83 12.4425 21.4325Z" fill="#D77408"/>
</g>
</svg>