<svg width="30" height="30" viewBox="0 0 30 30" fill="none" xmlns="http://www.w3.org/2000/svg">
<g id="log-in-outline">
<path id="Vector" d="M11.25 10.3125V7.96875C11.25 7.34715 11.4969 6.75101 11.9365 6.31147C12.376 5.87193 12.9721 5.625 13.5938 5.625H22.9688C23.5904 5.625 24.1865 5.87193 24.626 6.31147C25.0656 6.75101 25.3125 7.34715 25.3125 7.96875V22.0312C25.3125 22.6529 25.0656 23.249 24.626 23.6885C24.1865 24.1281 23.5904 24.375 22.9688 24.375H14.0625C12.7682 24.375 11.25 23.3256 11.25 22.0312V19.6875" stroke="black" stroke-width="1.5" stroke-linecap="round" stroke-linejoin="round"/>
<path id="Vector_2" d="M16.875 19.6875L21.5625 15L16.875 10.3125M4.6875 15H20.625" stroke="black" stroke-width="1.5" stroke-linecap="round" stroke-linejoin="round"/>
</g>
</svg>
