<svg width="30" height="30" viewBox="0 0 30 30" fill="none" xmlns="http://www.w3.org/2000/svg">
<g id="log-out-outline">
<path id="Vector" d="M17.8125 19.6875V22.0312C17.8125 22.6529 17.5656 23.249 17.126 23.6885C16.6865 24.1281 16.0904 24.375 15.4688 24.375H6.09375C5.47215 24.375 4.87601 24.1281 4.43647 23.6885C3.99693 23.249 3.75 22.6529 3.75 22.0312V7.96875C3.75 7.34715 3.99693 6.75101 4.43647 6.31147C4.87601 5.87193 5.47215 5.625 6.09375 5.625H15C16.2943 5.625 17.8125 6.67441 17.8125 7.96875V10.3125M21.5625 19.6875L26.25 15L21.5625 10.3125M10.3125 15H25.3125" stroke="black" stroke-width="1.5" stroke-linecap="round" stroke-linejoin="round"/>
</g>
</svg>
