<svg width="100" height="100" viewBox="0 0 100 100" fill="none" xmlns="http://www.w3.org/2000/svg">
<g id="profile_svgrepo.com">
<path id="Vector" opacity="0.1" fill-rule="evenodd" clip-rule="evenodd" d="M68.7509 29.4288C68.7509 42.7413 60.7092 54.1663 50.0009 54.1663C39.2842 54.1663 31.2509 42.7413 31.2509 29.4247C31.2509 16.1163 38.1676 8.33301 50.0009 8.33301C61.8342 8.33301 68.7509 16.1122 68.7509 29.4288ZM17.0926 83.9247C18.6967 85.833 25.6051 91.6663 50.0009 91.6663C74.3967 91.6663 81.3009 85.833 82.9092 83.9288C83.0584 83.7458 83.1686 83.5343 83.2331 83.3071C83.2976 83.08 83.315 82.8421 83.2842 82.608C82.9176 78.933 79.6092 62.4997 50.0009 62.4997C20.3926 62.4997 17.0842 78.933 16.7134 82.608C16.6832 82.8424 16.7013 83.0805 16.7665 83.3076C16.8317 83.5348 16.9427 83.742 17.0926 83.9247Z" fill="black"/>
</g>
</svg>
