<svg width="24" height="24" viewBox="0 0 24 24" fill="none" xmlns="http://www.w3.org/2000/svg">
<g id="Setting">
<path id="Process" d="M14.7864 15.8137L14.7414 14.22C15.0789 14.1562 15.5514 13.5862 15.7427 13.2825L15.0977 11.835C14.7414 11.7787 14.0027 11.745 13.7289 11.955L12.5739 10.8562C12.7652 10.575 12.6977 9.84 12.6152 9.49125L11.1339 8.925C10.8452 9.13125 10.3014 9.63375 10.2564 9.975L8.66268 10.0162C8.59893 9.67875 8.02518 9.21375 7.72518 9.01875L6.27768 9.66375C6.22143 10.02 6.18768 10.7587 6.39768 11.0325L5.30268 12.1875C5.01768 11.9962 4.28268 12.0675 3.93393 12.1462L3.36768 13.6237C3.57393 13.92 4.07643 14.4562 4.41393 14.505L4.45893 16.0987C4.12518 16.1662 3.65643 16.7325 3.46143 17.0362L4.11018 18.4837C4.46268 18.54 5.20143 18.57 5.47518 18.3675L6.63018 19.4587C6.43893 19.74 6.51018 20.4787 6.58893 20.8275L8.06643 21.3937C8.35893 21.1837 8.90268 20.6812 8.94768 20.3437L10.5414 20.2987C10.6089 20.64 11.1752 21.105 11.4827 21.2962L12.9264 20.655C12.9864 20.295 13.0127 19.56 12.8102 19.2862L13.9014 18.1275C14.1864 18.3225 14.9214 18.2512 15.2739 18.1725L15.8364 16.6912C15.6264 16.4025 15.1277 15.8625 14.7864 15.8137ZM11.2914 15.8025C11.1639 16.137 10.94 16.4262 10.6481 16.6334C10.3561 16.8407 10.0093 16.9567 9.65147 16.9669C9.29361 16.977 8.94078 16.8808 8.63759 16.6904C8.33441 16.5001 8.09448 16.2241 7.94816 15.8973C7.80184 15.5706 7.75569 15.2078 7.81555 14.8548C7.87541 14.5019 8.0386 14.1746 8.28447 13.9144C8.53034 13.6542 8.84785 13.4727 9.19685 13.3929C9.54586 13.3132 9.91068 13.3387 10.2452 13.4662C10.4675 13.5507 10.6709 13.6781 10.8439 13.8413C11.0169 14.0045 11.1559 14.2002 11.2531 14.4173C11.3503 14.6343 11.4037 14.8684 11.4103 15.1061C11.4169 15.3438 11.3765 15.5804 11.2914 15.8025ZM20.6252 5.4975C20.4489 5.35125 20.0327 5.0925 19.8264 5.16L19.1927 4.08C19.3502 3.93375 19.3277 3.4425 19.2864 3.22125L18.2027 2.60625C17.9889 2.685 17.5577 2.9175 17.5127 3.1275L16.2602 3.13875C16.2114 2.92875 15.7764 2.70375 15.5627 2.625L14.4902 3.25875C14.4527 3.48 14.4377 3.97125 14.5952 4.1175L13.9802 5.205C13.7702 5.14125 13.3577 5.4075 13.1852 5.55375L13.1964 6.79875C13.3727 6.945 13.7889 7.2 13.9952 7.13625L14.6289 8.21625C14.4714 8.3625 14.4939 8.85375 14.5352 9.075L15.6189 9.69C15.8289 9.61125 16.2602 9.37875 16.3089 9.16875L17.5577 9.1575C17.6102 9.3675 18.0452 9.5925 18.2589 9.67125L19.3314 9.0375C19.3689 8.8125 19.3839 8.325 19.2227 8.17875L19.8414 7.09125C20.0477 7.15125 20.4602 6.88875 20.6327 6.7425L20.6252 5.4975ZM16.9089 7.12875C16.7151 7.12838 16.5258 7.0706 16.3648 6.9627C16.2039 6.85481 16.0785 6.70163 16.0045 6.52253C15.9305 6.34342 15.9112 6.1464 15.9491 5.95635C15.987 5.76631 16.0804 5.59175 16.2174 5.45472C16.3544 5.31769 16.529 5.22433 16.719 5.18643C16.9091 5.14854 17.1061 5.1678 17.2852 5.24179C17.4643 5.31577 17.6175 5.44117 17.7254 5.60215C17.8333 5.76312 17.8911 5.95246 17.8914 6.14625C17.8917 6.27535 17.8665 6.40325 17.8172 6.52258C17.768 6.64192 17.6956 6.75035 17.6043 6.84164C17.513 6.93293 17.4046 7.00529 17.2853 7.05456C17.1659 7.10383 17.038 7.12904 16.9089 7.12875Z" fill="#F39C12"/>
</g>
</svg>
