<svg width="30" height="30" viewBox="0 0 30 30" fill="none" xmlns="http://www.w3.org/2000/svg">
<g id="trash-outline">
<path id="Vector" d="M8.75 26.25C8.0625 26.25 7.47396 26.0052 6.98438 25.5156C6.49479 25.026 6.25 24.4375 6.25 23.75V7.5C5.89583 7.5 5.59896 7.38021 5.35938 7.14062C5.11979 6.90104 5 6.60417 5 6.25C5 5.89583 5.11979 5.59896 5.35938 5.35938C5.59896 5.11979 5.89583 5 6.25 5H11.25C11.25 4.64583 11.3698 4.34896 11.6094 4.10938C11.849 3.86979 12.1458 3.75 12.5 3.75H17.5C17.8542 3.75 18.151 3.86979 18.3906 4.10938C18.6302 4.34896 18.75 4.64583 18.75 5H23.75C24.1042 5 24.401 5.11979 24.6406 5.35938C24.8802 5.59896 25 5.89583 25 6.25C25 6.60417 24.8802 6.90104 24.6406 7.14062C24.401 7.38021 24.1042 7.5 23.75 7.5V23.75C23.75 24.4375 23.5052 25.026 23.0156 25.5156C22.526 26.0052 21.9375 26.25 21.25 26.25H8.75ZM21.25 7.5H8.75V23.75H21.25V7.5ZM12.5 21.25C12.8542 21.25 13.151 21.1302 13.3906 20.8906C13.6302 20.651 13.75 20.3542 13.75 20V11.25C13.75 10.8958 13.6302 10.599 13.3906 10.3594C13.151 10.1198 12.8542 10 12.5 10C12.1458 10 11.849 10.1198 11.6094 10.3594C11.3698 10.599 11.25 10.8958 11.25 11.25V20C11.25 20.3542 11.3698 20.651 11.6094 20.8906C11.849 21.1302 12.1458 21.25 12.5 21.25ZM17.5 21.25C17.8542 21.25 18.151 21.1302 18.3906 20.8906C18.6302 20.651 18.75 20.3542 18.75 20V11.25C18.75 10.8958 18.6302 10.599 18.3906 10.3594C18.151 10.1198 17.8542 10 17.5 10C17.1458 10 16.849 10.1198 16.6094 10.3594C16.3698 10.599 16.25 10.8958 16.25 11.25V20C16.25 20.3542 16.3698 20.651 16.6094 20.8906C16.849 21.1302 17.1458 21.25 17.5 21.25Z" fill="#F39C12"/>
</g>
</svg>
