<svg width="21" height="21" viewBox="0 0 21 21" fill="none" xmlns="http://www.w3.org/2000/svg">
<g id="UsersThree">
<path id="Vector" d="M13.7813 11.8125C13.7813 12.4615 13.5888 13.0959 13.2283 13.6355C12.8677 14.1751 12.3553 14.5956 11.7557 14.844C11.1561 15.0923 10.4964 15.1573 9.85986 15.0307C9.22336 14.9041 8.6387 14.5916 8.17981 14.1327C7.72092 13.6738 7.40841 13.0891 7.2818 12.4526C7.15519 11.8161 7.22017 11.1564 7.46852 10.5568C7.71687 9.95725 8.13744 9.44479 8.67704 9.08424C9.21664 8.72369 9.85103 8.53125 10.5 8.53125C11.3702 8.53125 12.2048 8.87695 12.8202 9.49231C13.4355 10.1077 13.7813 10.9423 13.7813 11.8125ZM5.25 4.59375C4.73083 4.59375 4.22331 4.7477 3.79163 5.03614C3.35995 5.32458 3.0235 5.73455 2.82482 6.21421C2.62614 6.69386 2.57415 7.22166 2.67544 7.73086C2.77673 8.24006 3.02673 8.70779 3.39385 9.07491C3.76096 9.44202 4.22869 9.69203 4.73789 9.79331C5.24709 9.8946 5.77489 9.84261 6.25455 9.64393C6.7342 9.44525 7.14417 9.1088 7.43261 8.67712C7.72105 8.24544 7.875 7.73793 7.875 7.21875C7.875 6.52256 7.59844 5.85488 7.10616 5.36259C6.61387 4.87031 5.94619 4.59375 5.25 4.59375ZM15.75 4.59375C15.2308 4.59375 14.7233 4.7477 14.2916 5.03614C13.86 5.32458 13.5235 5.73455 13.3248 6.21421C13.1261 6.69386 13.0742 7.22166 13.1754 7.73086C13.2767 8.24006 13.5267 8.70779 13.8938 9.07491C14.261 9.44202 14.7287 9.69203 15.2379 9.79331C15.7471 9.8946 16.2749 9.84261 16.7545 9.64393C17.2342 9.44525 17.6442 9.1088 17.9326 8.67712C18.221 8.24544 18.375 7.73793 18.375 7.21875C18.375 6.52256 18.0984 5.85488 17.6062 5.36259C17.1139 4.87031 16.4462 4.59375 15.75 4.59375Z" fill="#FFFBEB"/>
<path id="Vector_2" d="M20.081 12.3375C20.0121 12.3892 19.9336 12.4268 19.8501 12.4482C19.7666 12.4696 19.6798 12.4743 19.5944 12.4622C19.5091 12.45 19.4271 12.4211 19.3529 12.3772C19.2787 12.3333 19.214 12.2752 19.1623 12.2063C18.7667 11.6746 18.2519 11.2432 17.6592 10.9468C17.0664 10.6505 16.4124 10.4974 15.7498 10.5C15.5757 10.5 15.4088 10.4309 15.2857 10.3078C15.1626 10.1847 15.0935 10.0178 15.0935 9.84375C15.0935 9.6697 15.1626 9.50278 15.2857 9.37971C15.4088 9.25664 15.5757 9.1875 15.7498 9.1875C16.118 9.18747 16.4788 9.08418 16.7913 8.88935C17.1037 8.69453 17.3553 8.41599 17.5173 8.08536C17.6794 7.75474 17.7455 7.38529 17.7082 7.01897C17.6708 6.65266 17.5315 6.30416 17.306 6.01308C17.0805 5.72199 16.7779 5.49997 16.4325 5.37224C16.0872 5.24452 15.7129 5.2162 15.3523 5.29051C14.9916 5.36482 14.6591 5.53878 14.3923 5.79263C14.1256 6.04648 13.9354 6.37004 13.8434 6.72656C13.8218 6.81005 13.784 6.88848 13.7322 6.95736C13.6803 7.02625 13.6154 7.08425 13.5411 7.12805C13.4669 7.17185 13.3847 7.20059 13.2993 7.21263C13.2139 7.22468 13.127 7.21979 13.0435 7.19824C12.9601 7.1767 12.8816 7.13892 12.8127 7.08707C12.7439 7.03521 12.6859 6.9703 12.6421 6.89603C12.5983 6.82176 12.5695 6.73959 12.5575 6.65422C12.5454 6.56884 12.5503 6.48193 12.5719 6.39844C12.6996 5.90405 12.941 5.4463 13.2768 5.06162C13.6126 4.67694 14.0336 4.37594 14.5062 4.18257C14.9788 3.9892 15.49 3.90881 15.9992 3.94778C16.5083 3.98675 17.0013 4.14402 17.439 4.40706C17.8767 4.6701 18.2469 5.03166 18.5203 5.46297C18.7936 5.89428 18.9625 6.38343 19.0136 6.89151C19.0646 7.39959 18.9963 7.91256 18.8142 8.38962C18.6321 8.86668 18.3412 9.29466 17.9646 9.63949C18.8569 10.0259 19.6327 10.639 20.2147 11.4179C20.2664 11.4871 20.304 11.5657 20.3253 11.6493C20.3465 11.733 20.3511 11.82 20.3387 11.9055C20.3262 11.9909 20.2971 12.073 20.2529 12.1471C20.2087 12.2213 20.1503 12.286 20.081 12.3375ZM15.6612 17.3906C15.707 17.4653 15.7374 17.5485 15.7505 17.6351C15.7637 17.7217 15.7594 17.8101 15.7378 17.8951C15.7163 17.98 15.678 18.0598 15.6251 18.1297C15.5722 18.1996 15.5059 18.2581 15.43 18.302C15.3541 18.3458 15.2702 18.374 15.1832 18.3849C15.0963 18.3958 15.008 18.3891 14.9237 18.3653C14.8393 18.3416 14.7606 18.3011 14.6921 18.2464C14.6237 18.1917 14.5669 18.1239 14.525 18.0469C14.1116 17.3471 13.5228 16.7671 12.8169 16.3643C12.1109 15.9614 11.3122 15.7495 10.4993 15.7495C9.68653 15.7495 8.88775 15.9614 8.1818 16.3643C7.47585 16.7671 6.88712 17.3471 6.47367 18.0469C6.43264 18.1253 6.37618 18.1946 6.30767 18.2507C6.23916 18.3067 6.16002 18.3483 6.07502 18.373C5.99002 18.3976 5.9009 18.4048 5.81304 18.3941C5.72518 18.3835 5.64038 18.3551 5.56376 18.3108C5.48713 18.2666 5.42025 18.2072 5.36715 18.1364C5.31405 18.0656 5.27582 17.9848 5.25477 17.8988C5.23371 17.8129 5.23026 17.7235 5.24462 17.6362C5.25899 17.5488 5.29087 17.4653 5.33835 17.3906C5.97459 16.2975 6.94468 15.4372 8.10609 14.9363C7.45257 14.4359 6.97228 13.7433 6.73272 12.9559C6.49317 12.1684 6.5064 11.3257 6.77055 10.5462C7.0347 9.76666 7.5365 9.0895 8.2054 8.6099C8.87431 8.1303 9.67669 7.87237 10.4998 7.87237C11.3228 7.87237 12.1252 8.1303 12.7941 8.6099C13.463 9.0895 13.9648 9.76666 14.229 10.5462C14.4931 11.3257 14.5064 12.1684 14.2668 12.9559C14.0272 13.7433 13.547 14.4359 12.8934 14.9363C14.0548 15.4372 15.0249 16.2975 15.6612 17.3906ZM10.4998 14.4375C11.0189 14.4375 11.5265 14.2835 11.9581 13.9951C12.3898 13.7067 12.7263 13.2967 12.9249 12.817C13.1236 12.3374 13.1756 11.8096 13.0743 11.3004C12.973 10.7912 12.723 10.3235 12.3559 9.95635C11.9888 9.58923 11.5211 9.33923 11.0119 9.23794C10.5027 9.13665 9.97487 9.18864 9.49522 9.38732C9.01556 9.586 8.60559 9.92245 8.31715 10.3541C8.02871 10.7858 7.87476 11.2933 7.87476 11.8125C7.87476 12.5087 8.15132 13.1764 8.6436 13.6687C9.13589 14.1609 9.80357 14.4375 10.4998 14.4375ZM5.90601 9.84375C5.90601 9.6697 5.83687 9.50278 5.7138 9.37971C5.59073 9.25664 5.42381 9.1875 5.24976 9.1875C4.88155 9.18747 4.52072 9.08418 4.20827 8.88935C3.89581 8.69453 3.64426 8.41599 3.48218 8.08536C3.32009 7.75474 3.25398 7.38529 3.29134 7.01897C3.32871 6.65266 3.46805 6.30416 3.69355 6.01308C3.91905 5.72199 4.22166 5.49997 4.56701 5.37224C4.91237 5.24452 5.28662 5.2162 5.64726 5.29051C6.00789 5.36482 6.34047 5.53878 6.60719 5.79263C6.87392 6.04648 7.06411 6.37004 7.15617 6.72656C7.19968 6.89517 7.30839 7.03959 7.45838 7.12805C7.60837 7.21651 7.78736 7.24176 7.95597 7.19824C8.12458 7.15473 8.269 7.04602 8.35746 6.89603C8.44591 6.74604 8.47116 6.56705 8.42765 6.39844C8.29988 5.90405 8.05849 5.4463 7.72268 5.06162C7.38688 4.67694 6.96592 4.37594 6.49332 4.18257C6.02071 3.9892 5.5095 3.90881 5.00035 3.94778C4.49121 3.98675 3.99818 4.14402 3.56051 4.40706C3.12284 4.6701 2.7526 5.03166 2.47925 5.46297C2.20591 5.89428 2.03699 6.38343 1.98596 6.89151C1.93492 7.39959 2.00317 7.91256 2.18527 8.38962C2.36738 8.86668 2.65831 9.29466 3.03492 9.63949C2.14347 10.0262 1.36863 10.6393 0.787261 11.4179C0.682723 11.5572 0.637779 11.7322 0.662316 11.9046C0.686853 12.077 0.778862 12.2326 0.9181 12.3371C1.05734 12.4416 1.2324 12.4866 1.40478 12.462C1.57715 12.4375 1.73272 12.3455 1.83726 12.2063C2.2328 11.6746 2.74765 11.2432 3.34037 10.9468C3.93308 10.6505 4.58709 10.4974 5.24976 10.5C5.42381 10.5 5.59073 10.4309 5.7138 10.3078C5.83687 10.1847 5.90601 10.0178 5.90601 9.84375Z" fill="#F39C12"/>
</g>
</svg>
